<?xml version="1.0" standalone="no"?><!DOCTYPE svg PUBLIC "-//W3C//DTD SVG 1.1//EN" "http://www.w3.org/Graphics/SVG/1.1/DTD/svg11.dtd"><svg t="1508338323760" class="icon" style="" viewBox="0 0 1024 1024" version="1.1" xmlns="http://www.w3.org/2000/svg" p-id="1608" xmlns:xlink="http://www.w3.org/1999/xlink" width="200" height="200"><defs><style type="text/css"></style></defs><path d="M844.8 140.8c-89.6-38.4-185.6-32-281.6 19.2-19.2 12.8-38.4 19.2-64 0-19.2-6.4-38.4-19.2-64-25.6-108.8-32-204.8-19.2-281.6 51.2C76.8 249.6 44.8 339.2 64 454.4c0 12.8 12.8 25.6 19.2 32 32 6.4 44.8-6.4 51.2-19.2 0-6.4 6.4-12.8 0-38.4-12.8-64 6.4-121.6 44.8-166.4 38.4-44.8 96-70.4 153.6-76.8 64 0 121.6 19.2 172.8 64 19.2 19.2 38.4 19.2 57.6 0 12.8-12.8 32-25.6 51.2-38.4 70.4-38.4 140.8-38.4 204.8-6.4 57.6 32 102.4 83.2 115.2 153.6 12.8 89.6-25.6 166.4-51.2 217.6-83.2 140.8-204.8 236.8-326.4 326.4-19.2 12.8-38.4 6.4-44.8 0-83.2-57.6-179.2-134.4-256-230.4-32-38.4-51.2-38.4-64-38.4-6.4 0-19.2 6.4-19.2 12.8 0 0-6.4 12.8 0 19.2 83.2 108.8 192 211.2 345.6 313.6 6.4 6.4 12.8 6.4 25.6 6.4 6.4 0 19.2 0 25.6-6.4 121.6-83.2 211.2-160 288-243.2 83.2-89.6 128-172.8 147.2-268.8 25.6-140.8-38.4-268.8-160-326.4z" fill="#bfbfbf" p-id="1609"></path><path d="M396.8 544c0-6.4 6.4-12.8 6.4-19.2l25.6-57.6 19.2 57.6c0 6.4 6.4 12.8 6.4 19.2l6.4 25.6c12.8 51.2 25.6 96 38.4 147.2 6.4 25.6 12.8 38.4 25.6 38.4 19.2 0 25.6-6.4 32-32l19.2-32c12.8-19.2 19.2-38.4 25.6-57.6 12.8-32 32-32 51.2-32h96c12.8 0 32 0 32-19.2 0-6.4 6.4-32-25.6-32H633.6c-38.4 0-51.2 6.4-64 38.4-6.4 25.6-25.6 76.8-32 70.4-6.4-6.4-12.8-44.8-12.8-44.8L512 556.8c-12.8-57.6-32-115.2-44.8-172.8-6.4-32-12.8-32-25.6-38.4-12.8 0-19.2 6.4-32 25.6l-12.8 38.4-38.4 96c-12.8 32-25.6 44.8-64 44.8h-256c-12.8 0-19.2 6.4-25.6 6.4-6.4 6.4-12.8 12.8-6.4 19.2 0 12.8 6.4 25.6 32 25.6H320c57.6 0 57.6 0 76.8-57.6z" fill="#bfbfbf" p-id="1610"></path></svg>