<?xml version="1.0" standalone="no"?><!DOCTYPE svg PUBLIC "-//W3C//DTD SVG 1.1//EN" "http://www.w3.org/Graphics/SVG/1.1/DTD/svg11.dtd"><svg t="1512452183303" class="icon" style="" viewBox="0 0 1024 1024" version="1.1" xmlns="http://www.w3.org/2000/svg" p-id="686" xmlns:xlink="http://www.w3.org/1999/xlink" width="200" height="200"><defs><style type="text/css">html, * { user-select: text !important; }
</style></defs><path d="M1023.198114 473.285376c-1.375667-11.325257-5.598644-21.722739-12.093071-30.456624l0.159961 0-0.863791-0.863791c-3.26321-4.318954-7.134272-8.126032-11.421234-11.517211l-167.095532-168.343229 0-103.238997c0-17.691715-14.332529-31.992252-31.992252-31.992252l-101.287469 0-116.771719-99.687857c-36.215229-36.215229-99.495903-36.279214-135.743125 0l-116.387812 99.687857-105.670408 0c-17.691715 0-31.992252 14.300537-31.992252 31.992252l0 105.350485-163.0965 163.0965c-17.339801 11.453226-28.857011 31.096469-28.857011 53.331084l0 479.371902c0 35.159485 28.793027 63.984504 63.984504 63.984504l895.783053 0c35.159485 0 63.984504-28.825019 63.984504-63.984504l0-478.124204c0.223946-2.879303-0.063985-5.758605-0.639845-8.605916zM268.948784 725.448305l-204.878381 190.033976 0-370.790199zM330.629846 755.425045c4.222977-1.791566 8.126032-4.510908 11.389242-8.222009 1.695589-1.951527 3.039264-4.063016 4.222977-6.238489l137.854613-127.905023c7.230249-5.854582 15.836165-8.925838 24.85798-8.925838 9.181776 0 18.363553 3.231217 24.506065 7.998063l383.747061 347.851755-807.132523 0zM758.302269 729.671283l201.551187-178.836688 0 361.544438zM897.884464 416.627098l-0.959768 0 54.866712 55.762495-119.874968 106.40623 0-228.136748zM491.326927 72.42246c6.078528-6.014543 14.076591-9.37373 22.618522-9.37373s16.571986 3.359186 22.650514 9.37373l64.624349 54.450813-174.389765 0zM767.899944 190.857777l0 444.724293-57.298123 50.86768-136.286993-123.522084c-37.65488-29.528848-91.753778-30.808539-131.648116 1.375667l-126.593341 117.411564-60.049457-53.011161 0-437.877951zM103.900757 442.828752l88.138654-88.106662 0 217.547313-116.579766-102.887082 27.001461-26.585561 1.471644 0z" p-id="687"></path></svg>