<?xml version="1.0" standalone="no"?><!DOCTYPE svg PUBLIC "-//W3C//DTD SVG 1.1//EN" "http://www.w3.org/Graphics/SVG/1.1/DTD/svg11.dtd"><svg t="1512452175132" class="icon" style="" viewBox="0 0 1024 1024" version="1.1" xmlns="http://www.w3.org/2000/svg" p-id="577" xmlns:xlink="http://www.w3.org/1999/xlink" width="200" height="200"><defs><style type="text/css">html, * { user-select: text !important; }
</style></defs><path d="M1023.456 232c0.992-6.144 0.192-12.48-2.464-18.272-8.064-35.424-33.696-53.728-76.992-53.728l-832 0c-38.08 0-79.104 14.016-99.296 41.472-1.728 1.344-3.392 2.816-4.896 4.576-6.464 7.424-8.704 17.024-7.264 26.048-0.288 2.592-0.544 5.184-0.544 7.904l0 512c0 53.024 58.976 112 112 112l832 0c53.024 0 80-58.976 80-112l0-512c0-2.816-0.384-5.312-0.544-8zM112 224l832.448 0-432.448 344.64-430.688-343.232c9.792-1.792 21.856-1.408 30.688-1.408zM944 800l-832 0c-17.632 0-48-30.336-48-48l0-458.432 427.04 341.664c6.016 5.216 13.472 7.808 20.96 7.808s14.944-2.592 20.96-7.808l427.04-341.632 0 458.432c0 17.664 1.664 48-16 48z" p-id="578"></path></svg>