<?xml version="1.0" standalone="no"?><!DOCTYPE svg PUBLIC "-//W3C//DTD SVG 1.1//EN" "http://www.w3.org/Graphics/SVG/1.1/DTD/svg11.dtd"><svg t="1531909663599" class="icon" style="" viewBox="0 0 1024 1024" version="1.1" xmlns="http://www.w3.org/2000/svg" p-id="1975" xmlns:xlink="http://www.w3.org/1999/xlink" width="200" height="200"><defs><style type="text/css"></style></defs><path d="M512 0C228.2496 0 0 228.2496 0 512s228.2496 512 512 512 512-228.2496 512-512S795.7504 0 512 0z m256 576H576V768c0 38.4-29.9008 64-64 64s-64-29.9008-64-64V576H256c-34.0992 0-64-27.7504-64-64s27.7504-64 64-64h192V260.3008c0-38.4 29.9008-64 64-64s64 29.9008 64 64v187.6992H768c34.0992 0 64 27.7504 64 64s-29.9008 64-64 64z" fill="#1296db" p-id="1976"></path></svg>