<?xml version="1.0" standalone="no"?><!DOCTYPE svg PUBLIC "-//W3C//DTD SVG 1.1//EN" "http://www.w3.org/Graphics/SVG/1.1/DTD/svg11.dtd"><svg t="1508339305127" class="icon" style="" viewBox="0 0 1024 1024" version="1.1" xmlns="http://www.w3.org/2000/svg" p-id="2769" xmlns:xlink="http://www.w3.org/1999/xlink" width="200" height="200"><defs><style type="text/css"></style></defs><path d="M888.885176 523.606971c0-81.111522-34.174275-169.484174-80.818909-235.715798-10.779708-15.331461-31.710548-18.853651-46.742172-7.835518-15.002723 11.010908-18.449051 32.393311-7.633218 47.757285 38.372003 54.527115 72.470416 129.081945 72.470416 195.790418 0 66.715699-34.0948 120.278276-72.470416 174.805391-10.819445 15.367586-7.402018 36.713864 7.633218 47.746448a33.054399 33.054399 0 0 0 19.518352 6.412192c10.447358 0 20.659903-4.963579 27.187695-14.236873 46.644634-66.267749 80.855034-133.619248 80.855034-214.723545zM260.374741 280.059268c-15.064136-11.047033-35.958851-7.560968-46.742172 7.835518-46.543484 66.231624-77.401482 154.604276-77.401482 235.715798 0 81.104297 30.854385 148.455796 77.401482 214.683807 6.563917 9.313032 16.808975 14.27661 27.220207 14.27661 6.766217 0 13.593847-2.095252 19.521965-6.433867 15.002723-11.014521 18.452664-32.396924 7.669343-47.76451-38.339491-54.487377-69.092726-108.049954-69.092726-174.765653 0-66.712086 30.753235-141.295816 69.092726-195.822931 10.78332-15.327849 7.33338-36.713864-7.669343-47.724772z m606.521131-165.817484c-12.253609-14.23326-33.383137-15.631299-47.244309-3.182615-13.893685 12.459522-15.298949 34.073125-3.110365 48.27026 84.341099 98.292584 135.064249 213.361631 135.064249 343.227489 0 129.851408-50.75205 266.021082-135.064249 364.302829-12.188584 14.197135-10.78332 35.821576 3.110365 48.273873a33.036337 33.036337 0 0 0 22.101291 8.482156 33.047174 33.047174 0 0 0 25.179143-11.664771c95.059395-110.734044 147.397333-252.394722 147.397333-398.845579 0-146.46892-52.374063-288.097086-147.433458-398.863642zM73.514429 502.553306c0-129.865858 50.6509-244.938517 134.930586-343.227489 12.188584-14.222423 10.815833-35.814351-3.110365-48.270261a32.899062 32.899062 0 0 0-47.211797 3.182615C63.092359 224.97944 10.790545 366.636506 10.790545 513.098201c0 146.45447 52.298201 288.115149 147.328696 398.849192a32.982149 32.982149 0 0 0 25.179143 11.664771 33.021887 33.021887 0 0 0 22.065166-8.482156c13.92981-12.455909 15.302561-34.076737 3.113978-48.273873-84.312199-98.242009-142.75888-228.58833-134.963099-364.302829z m440.667523-228.935131c-129.244507 0-231.597545 96.880096-231.597545 228.935131 0 67.738037 25.674056 143.239342 75.331518 188.7063a32.946024 32.946024 0 0 0 47.276822-2.669639c12.354759-14.05986 11.184308-35.680689-2.575715-48.306386-35.492838-32.454724-57.312354-89.391378-57.312354-137.730275 0-94.322444 74.941367-168.432936 167.25526-168.432936s167.25526 74.106879 167.25526 168.432936-73.283229 181.593283-165.600734 181.593283H502.499118c-14.197135 0-26.851732 9.164919-31.573273 22.845466-8.001693 23.26813-20.761053 44.133945-37.837353 62.030283-12.893022 13.546885-12.625697 35.196613 0.635801 48.367798a33.029112 33.029112 0 0 0 23.369279 9.721245c8.706131 0 17.40865-3.460778 23.97618-10.331758 18.279263-19.189614 33.014662-40.781542 43.964158-64.483172 124.255641-5.783617 217.505172-121.380089 217.505171-249.739533-0.068638-132.015297-99.10901-228.938743-228.357129-228.938743z" p-id="2770"></path></svg>