<?xml version="1.0" standalone="no"?><!DOCTYPE svg PUBLIC "-//W3C//DTD SVG 1.1//EN" "http://www.w3.org/Graphics/SVG/1.1/DTD/svg11.dtd"><svg t="1482981899152" class="icon" style="" viewBox="0 0 1024 1024" version="1.1" xmlns="http://www.w3.org/2000/svg" p-id="14886" xmlns:xlink="http://www.w3.org/1999/xlink" width="14" height="14"><defs><style type="text/css"></style></defs><path d="M938.666667 0 85.333333 0C38.229333 0 0 38.186667 0 85.333333l0 853.333333c0 47.104 38.229333 85.333333 85.333333 85.333333l853.333333 0c47.146667 0 85.333333-38.229333 85.333333-85.333333L1024 85.333333C1024 38.186667 985.813333 0 938.666667 0zM810.666667 597.333333l-213.333333 0 0 213.333333-170.666667 0 0-213.333333L213.333333 597.333333l0-170.666667 213.333333 0L426.666667 213.333333l170.666667 0 0 213.333333 213.333333 0L810.666667 597.333333z" p-id="14887" fill="#337ab7"></path></svg>