<?xml version="1.0" encoding="utf-8"?>
<!-- Svg Vector Icons : http://www.sfont.cn -->
<!DOCTYPE svg PUBLIC "-//W3C//DTD SVG 1.1//EN" "http://www.w3.org/Graphics/SVG/1.1/DTD/svg11.dtd">
<svg version="1.1" xmlns="http://www.w3.org/2000/svg" xmlns:xlink="http://www.w3.org/1999/xlink" x="0px" y="0px" viewBox="0 0 1000 1000" enable-background="new 0 0 1000 1000" xml:space="preserve">
<metadata> Svg Vector Icons : http://www.sfont.cn </metadata>
<g><path d="M978.9,922.6L731.9,680.1c134.7-160.4,126.7-400.8-24.1-551.7C548.3-31,289-31,129.6,128.4c-159.4,159.4-159.4,418.7,0,578.1C278.1,855,513.3,865.1,673.7,736.9L922,980.6c14.6,14.3,37.9,14.1,52.2-0.5l5.2-5.3C993.7,960.3,993.5,936.9,978.9,922.6z M187.1,648.9c-127.6-127.6-127.6-335.3,0-462.9c127.6-127.6,335.3-127.6,463,0c127.6,127.6,127.6,335.3,0,462.9C522.5,776.5,314.8,776.5,187.1,648.9z"/><path d="M952.4,733.2"/><path d="M662.8,376.7H459.3V173.2h-81.4v203.5H174.4v81.4h203.5v203.5h81.4V458.1h203.5V376.7z"/></g>
</svg>