<?xml version="1.0" standalone="no"?><!DOCTYPE svg PUBLIC "-//W3C//DTD SVG 1.1//EN" "http://www.w3.org/Graphics/SVG/1.1/DTD/svg11.dtd"><svg t="1483966217163" class="icon" style="" viewBox="0 0 1112 1024" version="1.1" xmlns="http://www.w3.org/2000/svg" p-id="4191" xmlns:xlink="http://www.w3.org/1999/xlink" width="18.4609375" height="17"><defs><style type="text/css"></style></defs><path d="M731.415133 495.012769l98.591787 0 199.21389-171.573384c-8.70135-20.467771-18.453134-40.151637-29.521879-59.082953L735.49928 491.43816 731.415133 495.012769zM588.814894 15.50565l0 80.804973L669.92559 26.323545C643.515816 20.789172 616.525952 16.814772 588.814894 15.50565zM1005.970175 495.012769l57.507303-49.503629c-3.488379-24.175644-9.171694-47.630095-16.046544-70.55149l-139.597881 120.062957L1005.970175 495.020608zM841.302998 97.792204 588.814894 314.808586l0 84.857764 304.696206-262.576967C876.970695 122.845822 859.497443 109.778118 841.302998 97.792204zM729.220198 42.354411l-140.405304 120.799829 0 84.865603 205.728144-177.366445C773.510855 59.921732 751.890743 50.162109 729.220198 42.354411zM971.407784 221.508161c-12.59736-17.151851-26.174603-33.49628-40.802278-48.868665L588.814894 466.494289l0 28.51848 65.103347 0L971.407784 221.508161zM541.09857 15.50565C273.606516 28.040298 60.43127 248.29421 60.43127 518.819977c0 117.131151 40.222188 224.635943 107.183391 310.222739l373.483909-321.142542L541.09857 15.50565zM573.724714 542.658542l-375.036041 322.498699c92.030499 97.266987 221.860918 158.246991 366.287657 158.246991 270.557124 0 490.795358-213.206602 503.353523-480.74569L573.724714 542.658542z" p-id="4192" fill="#ffffff"></path></svg>