<?xml version="1.0" standalone="no"?><!DOCTYPE svg PUBLIC "-//W3C//DTD SVG 1.1//EN" "http://www.w3.org/Graphics/SVG/1.1/DTD/svg11.dtd"><svg t="1483925012442" class="icon" style="" viewBox="0 0 1160 1024" version="1.1" xmlns="http://www.w3.org/2000/svg" p-id="5511" xmlns:xlink="http://www.w3.org/1999/xlink" width="18.125" height="16"><defs><style type="text/css"></style></defs><path d="M986.522283 357.205333a41.096533 41.096533 0 0 0-58.026667-8.362666 41.984 41.984 0 0 0-8.260267 58.504533 157.013333 157.013333 0 0 1 31.1296 94.344533c0 34.235733-10.820267 66.901333-31.232 94.344534a41.984 41.984 0 0 0 8.2944 58.504533 41.130667 41.130667 0 0 0 58.026667-8.362667 240.2304 240.2304 0 0 0 47.786667-144.4864c0-52.565333-16.520533-102.536533-47.7184-144.4864z m94.788266-95.505066a41.301333 41.301333 0 0 0-58.026666-8.328534 42.0864 42.0864 0 0 0-8.260267 58.538667 315.118933 315.118933 0 0 1 62.600533 189.713067c0 69.154133-21.674667 134.826667-62.737066 189.781333a42.052267 42.052267 0 0 0 8.192 58.5728 41.301333 41.301333 0 0 0 58.026666-8.260267A398.404267 398.404267 0 0 0 1160.534016 501.623467c0-87.381333-27.409067-170.325333-79.189333-239.9232zM787.490816 0L259.072683 250.845867H82.944683A83.285333 83.285333 0 0 0 0.000683 334.472533v334.472534a83.285333 83.285333 0 0 0 82.909866 83.592533h176.128l528.452267 250.845867a83.285333 83.285333 0 0 0 82.909867-83.626667V83.626667A83.285333 83.285333 0 0 0 787.490816 0zM82.944683 585.3184V334.4384H207.190016v334.506667H82.944683v-83.626667z m704.580266 325.666133L294.332416 676.864l-4.1984-1.979733V328.4992l4.1984-2.013867 493.1584-234.0864v818.5856z" fill="#F87331" p-id="5512"></path></svg>