<?xml version="1.0" standalone="no"?><!DOCTYPE svg PUBLIC "-//W3C//DTD SVG 1.1//EN" "http://www.w3.org/Graphics/SVG/1.1/DTD/svg11.dtd"><svg t="1509774487967" class="icon" style="" viewBox="0 0 1024 1024" version="1.1" xmlns="http://www.w3.org/2000/svg" p-id="1779" xmlns:xlink="http://www.w3.org/1999/xlink" width="200" height="200"><defs><style type="text/css"></style></defs><path d="M1007.673661 539.76332c-2.203178 17.610076-3.8814 35.304064-6.694469 52.813856C983.943191 698.556906 937.253822 789.591249 861.207845 865.171622c-73.308633 72.861448-161.379481 117.969808-263.156492 135.957485-16.702404 2.952238-33.723056 4.085038-50.590212 6.118348-2.963495 0.357134-5.884011 1.025353-8.822946 1.553379-16.45988 0-32.915667 0-49.373501 0-17.365506-2.178619-34.82004-3.811816-52.084239-6.612605-120.354112-19.530822-220.418109-75.756381-299.423487-168.410618C67.771011 751.699244 29.711184 656.136771 21.787724 548.56273c-0.257873-3.501754-1.028423-6.965645-1.559519-10.444886 0-15.909341 0-31.81766 0-47.725978 1.611707-13.555737 3.060709-27.131941 4.857635-40.664142C52.618916 242.37212 208.702788 74.41892 413.715021 32.141024c21.678742-4.471848 43.931558-6.145977 65.913199-9.154497 3.225461-0.441045 6.42534-1.082658 9.636474-1.633197 16.457834 0 32.913621 0 49.373501 0 17.913998 2.234901 35.94056 3.784186 53.720505 6.810103 134.275169 22.854521 241.7346 89.557712 322.155211 199.258183 44.295855 60.425208 72.319096 128.144542 85.163635 201.977108 2.861164 16.439414 4.164856 33.152051 6.258541 49.731658 0.405229 3.225461 1.150196 6.411013 1.736551 9.614985C1007.673661 505.750669 1007.673661 522.756995 1007.673661 539.76332zM991.652779 514.469238C991.62208 251.072269 777.79611 37.420261 514.153548 37.365003 250.017752 37.310767 36.5131 250.630201 36.232714 514.87856 35.954375 778.736017 249.661641 992.618269 513.733992 992.775858 778.113335 992.932424 991.680409 779.194458 991.652779 514.469238z" p-id="1780" fill="#1296db"></path><path d="M513.320577 983.040123C254.283916 982.26855 44.980959 772.499989 45.970496 514.657526 46.967196 255.252475 255.716544 46.782489 514.175037 47.081295c259.118526 0.298805 469.036489 210.703863 467.76452 468.848201C980.661448 775.358083 771.539616 983.810672 513.320577 983.040123zM910.378731 281.33041C797.550013 83.426061 532.777721-13.528108 303.074132 105.663528 59.65824 231.967142-21.214672 533.035082 126.070812 763.39768c145.32176 227.287563 446.417329 278.929734 657.628752 124.985596 219.290425-159.838382 231.718479-436.554704 130.201387-600.414679-1.433652 2.134617-3.444449 4.666276-4.925173 7.475252-1.084705 2.052752-2.212388 4.529153-2.039449 6.718005 0.582261 7.341199 1.816369 14.629185 2.659573 21.954011 1.336438 11.617595 2.663666 23.239284 3.712555 34.884508 0.14224 1.570775-0.960885 4.067642-2.216481 4.711302-1.191128 0.610914-3.891633-0.116657-4.945639-1.206478-1.77339-1.828648-3.667529-4.316306-3.920286-6.696516-0.809435-7.591909-0.804319-15.267728-1.284249-22.900569-0.197498-3.134387-0.835018-6.239098-1.27197-9.357112-1.353834-0.025583-2.706645-0.051165-4.062526-0.076748-0.969071 5.765307-2.338255 11.500938-2.771113 17.306154-0.301875 4.034896 1.302669 8.235568 0.865717 12.231579-0.278339 2.530636-2.422166 6.531763-4.29277 6.883781-4.600785 0.865717-6.5246-2.460028-6.67298-7.086395-0.180102-5.729491 0.105401-11.757788-1.650593-17.048281-1.109264-3.352351-5.572926-5.593392-8.53335-8.332782-1.480724 3.278673-3.78214 6.434549-4.296863 9.858532-1.930979 12.876262-2.780323 25.928532-5.025457 38.740326-1.641383 9.366322-4.019547 9.998725-13.314237 5.755074 0.337691-1.753947 0.689708-3.596921 1.044796-5.439896 2.608407-13.644765 6.248308-27.193339 7.54893-40.960901 1.381463-14.657838-2.424212-21.433148-14.249539-25.219381-8.777921-2.806929-17.366529-6.243191-25.915229-9.702989-4.037966-1.633197-8.113795-3.554966-11.521404-6.187933-1.587148-1.225921-2.914376-5.646604-2.099824-6.523577 1.600451-1.725294 5.41329-3.416819 7.203052-2.62478 11.67183 5.173836 23.006993 11.099802 34.545794 16.581654 2.579755 1.226944 7.272637 3.079128 7.982812 2.205225 2.01182-2.484587 3.3984-6.28924 3.202948-9.460466-0.125867-2.059915-3.168156-4.380774-5.406127-5.78475-6.378268-4.002151-13.772678-6.857175-15.493879-15.557324 7.414877-6.192026 11.294231 0.246617 16.186657 3.645017 5.476735 3.804652 11.342326 7.046486 17.038048 10.532891 0.877997-1.224898 1.753947-2.449795 2.629897-3.674693-3.061732-2.801812-6.052856-5.689582-9.207709-8.389064-5.293563-4.529153-10.897188-8.726755-15.867386-13.577227-0.968048-0.945535 0.347924-4.231371 0.608867-6.440689 2.049682 0.423649 4.489244 0.268106 6.083555 1.356904 11.765975 8.036024 23.598464 16.013719 34.929534 24.639167C896.320551 286.644439 902.851291 286.147112 910.378731 281.33041zM867.201349 306.554908c-1.202385 6.949272 5.550413 14.129812 12.06785 14.757099 5.863545 0.563842 18.398022-9.43693 19.277042-15.047718 1.38658-8.81783-5.205559-11.595083-10.904351-15.166421-5.099135-3.194762-8.565073-2.12029-10.584056 3.697205-0.242524 0.699941-1.784646 1.182942-2.792603 1.342578C867.968829 297.129234 866.271164 301.095569 867.201349 306.554908z" p-id="1781" fill="#1296db"></path><path d="M795.910677 332.845691c6.742565 11.742439 12.976546 22.603811 19.576871 34.109866-8.731872 6.058996-16.876366 12.003382-25.337061 17.458627-4.190439 2.701528-5.53404 5.241374-3.118014 10.013051 2.707668 5.358031 4.992711 11.011798 6.725168 16.757662 1.626034 5.39794 4.623297 6.529717 9.784854 5.591345 9.660011-1.759063 19.410072-3.038196 29.879518-4.631484 3.178389 11.79872 6.420223 23.052019 9.016351 34.450626 0.327458 1.429559-2.367931 4.52506-4.294816 5.319146-7.594979 3.128247-15.359826 5.91471-23.222911 8.29185-5.091972 1.538029-7.251148 3.90596-6.091742 9.454326 1.171686 5.615904 2.148943 11.410887 2.080382 17.11275-0.084934 6.724145 3.284813 8.223289 9.004071 8.538467 7.93574 0.435928 15.899108 1.055029 23.702841 2.446725 2.189875 0.388856 5.386684 3.686972 5.491061 5.783727 0.553609 10.917654 0.260943 21.87931 0.260943 33.895995-9.901511 0.816598-19.345604 1.954515-28.818349 2.263553-6.953366 0.224104-10.892071 2.536776-10.397814 10.028401 0.073678 1.083681-0.1361 2.185782-0.231267 3.279696-0.559748 6.427386-3.605108 14.292518-0.960885 18.86772 2.474354 4.27742 10.963703 5.117554 16.839527 7.386224 16.497743 6.370081 16.499789 6.352685 11.861142 23.073508-1.89721 6.833639-3.768837 13.673417-5.829775 21.170159-10.692526-1.926886-20.941961-3.474125-31.036877-5.720282-4.748141-1.052982-6.986111 0.149403-8.654101 4.600785-2.877537 7.67889-6.2831 15.153118-9.781784 23.472598 8.160867 5.962805 16.131399 12.121062 24.462135 17.732873 4.467755 3.00852 5.737678 5.692652 2.631944 10.589173-5.698792 8.979512-10.879792 18.283412-16.522302 27.872814-11.776208-5.498224-22.899546-10.688433-34.3002-16.010649-6.515391 8.230452-12.780071 16.145725-19.487843 24.620747 7.774057 9.653871 15.581883 19.34765 23.316032 28.952402-9.644661 9.346879-18.805298 18.22406-28.444842 27.562752-8.838296-7.513114-18.199501-15.46625-27.970028-23.769356-8.506744 6.369058-16.750499 12.543687-25.229614 18.891256 5.110391 11.550057 10.064216 22.74912 15.332197 34.663474-11.304464 6.560416-22.132066 12.845563-34.042327 19.75288-7.206122-10.383488-14.309914-20.621667-21.742187-31.332612-9.619078 3.857864-18.950607 7.593955-29.100782 11.665691 1.835811 12.283768 3.677762 24.596188 5.602601 37.470403-11.70253 3.162016-22.708188 6.399757-33.881668 8.889461-1.644453 0.36225-5.122671-2.357697-5.959735-4.38896-3.339048-8.095375-6.100952-16.439414-8.795317-24.784476-1.301645-4.03285-3.26537-5.661953-7.739265-4.915963-8.350179 1.387603-16.792455 2.202155-25.65838 3.312442-1.337461 12.410658-2.648316 24.570605-4.015454 37.259602-13.017478 0-25.494651 0-39.21514 0-0.73985-8.850575-1.858324-17.998933-2.161223-27.175943-0.251733-7.642051-2.045589-12.83226-11.189853-11.786441-2.111081 0.243547-4.338818-0.50142-6.510274-0.822738-14.784728-2.173502-14.784728-2.178619-20.216437 12.136412-1.166569 3.076058-2.297322 6.16235-3.508917 9.223059-5.290493 13.359262-1.909489 12.334933-17.270339 8.420787-8.191566-2.087545-16.308431-4.476965-25.189705-6.933923 1.861394-10.443863 3.252067-20.430308 5.53711-30.209022 1.238201-5.301749 0.458441-8.080026-5.0142-9.81453-5.721305-1.813299-11.372002-4.161786-16.626679-7.051603-5.081739-2.793626-7.736195-1.289366-10.611685 3.146667-4.469801 6.890944-9.31311 13.580297-14.518668 19.932981-1.402953 1.709945-5.435803 3.334955-6.971785 2.529613-10.155291-5.302773-19.956517-11.276834-30.451546-17.371646 5.502317-11.695367 10.714016-22.775726 16.10377-34.234709-8.319479-6.496971-16.265452-12.703323-24.841781-19.401886-9.486048 7.624654-19.021216 15.291265-28.094872 22.587438-9.215896-9.41237-18.142196-18.527982-27.780717-28.374234 5.314029-6.279007 11.310603-14.074553 18.0941-21.1149 4.688789-4.865821 4.27742-8.384971 0.050142-13.136182-5.057179-5.684466-9.405207-12.003382-14.19428-18.225083-11.398608 5.013177-22.394033 9.852392-34.178427 15.038508-6.575766-11.388375-12.933567-22.397103-19.641339-34.012651 8.607028-5.983271 16.489556-11.842723 24.77015-17.071817 4.800329-3.03308 6.28924-5.925966 3.488451-11.295254-2.901073-5.563716-4.466732-11.834536-7.478322-17.322527-1.159406-2.118244-4.824889-4.326539-7.117095-4.103458-10.30674 1.007957-20.528546 2.87242-31.622208 4.556783-3.405563-12.778024-6.67605-25.049512-10.104125-37.908378 10.393721-3.715625 19.832697-7.299243 29.420053-10.425444 4.464685-1.455141 6.17156-3.588735 5.142114-8.401344-1.143033-5.344728-2.24718-10.874675-2.077312-16.283872 0.255827-8.170077-3.777023-10.100032-10.954493-10.398838-8.965186-0.373507-17.892509-1.746784-26.925233-2.699482 0-13.364379 0-25.888624 0-39.310308 10.106172-0.791016 19.859303-1.684362 29.629831-2.26253 5.022387-0.298805 8.088212-1.657756 8.331759-7.569396 0.258896-6.266727 1.471514-12.517081 2.600221-18.7132 0.839111-4.602831-0.647753-6.980995-5.169743-8.538467-9.282411-3.199878-18.367323-6.974855-28.493961-10.881838 3.390213-12.724813 6.670933-25.03314 10.116405-37.965683 10.559497 1.890047 20.541849 3.41068 30.391171 5.551436 4.703115 1.023306 7.140631-0.042979 8.606005-4.680603 1.39579-4.425799 3.40761-8.66945 5.29561-12.927427 4.786003-10.789741 4.822842-10.780531-5.058203-17.9887-6.39771-4.668323-12.805654-9.320273-19.998473-14.553461 6.593162-11.42419 12.95915-22.455431 19.635199-34.024931 9.782807 4.589528 19.042705 8.627495 27.991518 13.265118 4.337795 2.249227 6.770194 1.566682 9.44307-2.390443 3.520173-5.213745 7.349385-10.30674 11.661597-14.869662 3.970428-4.201695 3.107781-7.264451-0.271176-11.168364-6.266727-7.236821-12.154831-14.801101-18.004049-21.988804 9.510608-9.284457 18.658965-18.213827 28.430516-27.752064 6.831592 5.804193 14.6957 12.155854 22.147416 18.960841 3.573385 3.264347 6.214539 3.260254 9.843182 0.230244 5.252631-4.386914 11.214413-7.961322 16.219403-12.589736 1.720178-1.591241 2.701528-5.743818 1.904373-7.969509-2.762927-7.718799-6.237051-15.208377-9.880021-22.570042-2.105964-4.256954-1.792832-6.824429 2.671852-9.218966 9.410324-5.052063 18.575054-10.555403 28.873608-16.468067 5.616928 8.129144 11.43954 15.989159 16.606213 24.25338 3.038196 4.859681 6.114255 6.562463 11.220552 3.298116 1.596358-1.01819 3.484358-1.589195 5.250584-2.335185 17.536398-7.429203 17.536398-7.427156 14.579043-26.619264-2.530636-16.426111-2.538823-16.455787 13.253862-20.765953 7.097652-1.936095 14.234189-3.725858 22.147416-5.788843 3.507894 9.765411 7.055696 18.903535 10.029424 28.225855 1.51347 4.744048 3.632737 7.060813 8.834202 5.574972 2.346441-0.668219 4.880147-0.672312 7.318686-1.039679 17.724687-2.669806 17.742083-2.672876 20.075221-20.814048 0.728594-5.658883 1.316995-11.340279 2.01489-17.377786 13.109576 0 25.613354 0 39.190581 0 0.753153 9.212826 1.788739 18.389836 2.159176 27.595498 0.258896 6.39464 1.886977 10.199293 9.347902 10.209526 7.810896 0.00921 17.359366 4.191462 22.922059 0.974188 5.225001-3.022847 6.254447-13.31833 9.117658-20.420075 1.418302-3.52222 2.804882-7.058766 4.593622-11.564383 12.671601 3.419889 24.960485 6.738471 37.901215 10.231015-1.831718 10.083659-3.066849 19.573801-5.40408 28.786627-1.605567 6.333242 0.491187 9.194406 6.247284 10.722202 2.368954 0.62831 4.628414 1.706875 6.903224 2.657526 15.22168 6.359848 15.214517 6.363941 25.248034-7.219425 3.715625-5.031597 7.436366-10.063193 11.653411-15.770172 11.486612 6.677073 22.491247 13.072737 33.972742 19.74674-4.573155 9.646708-8.44023 18.720364-13.133112 27.346835-2.747577 5.045923-1.561565 7.67889 2.814092 10.69048 6.517437 4.487198 12.603039 9.606799 19.641339 15.054881 9.333576-7.488555 18.652825-14.965853 27.304879-21.906939 9.389858 9.275247 18.469654 18.240433 28.202319 27.850301-4.903683 5.805216-10.080589 12.906961-16.266475 18.984377-6.033413 5.92699-7.390317 10.978029-0.421602 16.777105 0.6191 0.515746 1.035586 1.274016 1.538029 1.924839 11.636015 14.978133 11.636015 14.978133 29.288047 7.125281C784.990976 337.696162 789.973454 335.483774 795.910677 332.845691zM513.351276 710.85193c59.510372 0 119.020744 0.110517 178.525999-0.224104 4.343935-0.022513 9.870812-2.077312 12.828167-5.13802 64.640206-66.828035 91.160209-146.688897 75.002205-238.148935C752.408907 312.807309 603.59051 214.931141 451.11277 251.857145c-100.836593 24.420179-168.279634 88.768743-196.776665 188.382485-28.503171 99.635231-3.816932 188.476629 67.067488 264.310781 4.524037 4.836145 9.388834 6.452969 15.895015 6.429433C395.982148 710.775182 454.667735 710.859094 513.351276 710.85193zM349.200682 726.34581c-0.197498 0.768503-0.398066 1.533936-0.595564 2.296299 57.729819 43.352367 122.596176 61.891605 194.780195 54.614875 48.39522-4.882194 122.857119-36.236296 135.172609-56.911174C568.633347 726.34581 458.917526 726.34581 349.200682 726.34581z" p-id="1782" fill="#1296db"></path><path d="M682.160983 123.371842c-3.944845-1.598404-8.160867-2.753717-11.745509-4.940522-2.575662-1.567705-6.51846-5.285377-6.024204-6.704702 1.738597-4.970198 0.192382-12.473079 7.785314-13.928221 2.800789-0.537236 6.236028-0.408299 8.776897 0.748037 13.879102 6.29845 27.582195 12.992919 41.323151 19.593244 5.358031 2.572592 4.981455 6.526647 2.369977 10.850116-2.090615 3.465938-4.29277 6.862291-6.662747 10.636245-5.674233-2.63399-10.966773-5.317099-16.457834-7.500834-1.626034-0.644683-3.811816 0.12689-5.741771 0.246617 1.000793 1.622964 1.697665 3.593851 3.070942 4.77884 2.037403 1.755993 4.657067 2.817162 6.853082 4.41352 4.445242 3.230578 5.060249 7.023974 5.342682 12.971429 0.73678 15.639189-7.392364 26.957978-14.219863 39.320541-1.165546 2.112104 0.203638 5.824659 0.864694 8.691963 0.893346 3.882424 2.233877 7.662517 3.384074 11.487635-0.870834 0.583285-1.740644 1.167592-2.610454 1.7519-2.983961-1.992377-6.762007-3.375887-8.819876-6.074346-9.084912-11.913331-18.329461-23.548322-31.517831-31.28554-1.176802-0.690732-2.237971-1.778506-3.500731-2.092661-9.634428-2.397606-19.244296-4.988618-28.990265-6.853082-10.416234-1.995447-20.969591-3.26537-32.781614-5.052063 0.50449-4.136204 0.578168-7.832386 1.466398-11.32186 1.850138-7.248078 3.716648-14.548344 6.466272-21.475104 0.915859-2.298346 4.357238-4.450359 7.003508-5.037736 6.513344-1.444908 13.300934-1.653663 19.837814-3.02694 1.644453-0.345877 2.761903-3.200902 4.122901-4.901637-1.831718-0.795109-3.670599-2.290159-5.493108-2.2656-8.562003 0.115634-17.122983 0.648776-25.683962 1.033539-0.449231-1.318018-0.896416-2.635013-1.343601-3.950985 2.405793-1.524726 4.750187-4.219091 7.225565-4.339842 5.674233-0.276293 11.409864 1.013073 17.120936 1.020236 2.350534 0.002047 4.703115-1.660826 7.055696-2.565429-1.925862-1.354857-3.675716-3.209088-5.814426-3.950985-3.317559-1.151219-6.867408-1.807159-10.371208-2.207271-9.657964-1.107217-9.80225-1.207501-7.278777-12.739139 4.28663 0.911766 8.574283 1.88186 12.883425 2.724041 6.446829 1.25662 12.905938 2.431376 19.363 3.620457 4.835122 0.892323 6.421246-0.772596 5.577019-5.851265-0.522909-3.143597 0.584308-6.557346 0.959861-9.849322 3.399423 1.697665 7.308453 2.803859 10.099009 5.203512 8.574283 7.378038 6.429433 13.798261-4.669346 19.755949-2.727111 1.464351-5.120624 4.507664-6.459109 7.389294-2.053776 4.425799-2.663666 9.520841-4.677533 13.972223-1.070378 2.364861-3.842515 3.941775-5.792936 5.931083-1.87572 1.919722-3.682879 3.913123-5.523807 5.873778 2.193968 1.830695 4.239558 4.897543 6.614651 5.180999 3.111874 0.372483 7.864108-0.38681 9.514701-2.517333 8.714476-11.243065 19.992333-15.021112 33.615609-13.673417 0.905626 0.090051 1.88493-0.531096 2.829442-0.821715C681.725054 124.879172 681.943019 124.124995 682.160983 123.371842zM685.03852 187.640588c1.161453-1.666966 3.950985-4.13211 4.696975-7.109931 0.975211-3.88754-10.473539-14.421454-14.594393-12.947893-3.048429 1.090844-5.912663 5.163603-7.048533 8.520047C666.731572 180.14487 676.335301 187.225125 685.03852 187.640588zM680.548252 106.337887c-0.934279 1.068332-3.149736 2.564405-2.954285 3.599991 0.393973 2.082428 1.641383 4.803399 3.354398 5.699816 7.123234 3.724835 14.427594 7.178493 21.925359 10.06217 2.711761 1.042749 6.142907 0.207731 9.242502 0.229221-1.805112-2.721994-2.993171-6.559393-5.5279-7.960299-7.343245-4.056386-15.22168-7.140631-22.898523-10.583033C682.950975 107.052155 682.148703 106.865913 680.548252 106.337887zM653.170718 153.053861c-4.194532 4.52813-7.902994 6.828522-8.829086 9.957793-1.208525 4.075829 6.02011 9.657964 11.047614 9.766434 5.39794 0.115634 8.230452-3.6399 7.145747-7.612375C661.476895 161.282267 657.367297 158.231791 653.170718 153.053861zM603.833033 152.99451c1.172709 1.864464 1.983167 4.625344 3.331885 4.919033 1.565658 0.340761 4.452405-1.006933 5.270027-2.463098 1.961678-3.50687 3.420913-7.4159 4.327562-11.340279 0.388856-1.687432-1.095961-3.807722-1.732457-5.731538-1.805112 0.788969-4.383844 1.085728-5.262864 2.466168C607.483166 144.441717 605.948207 148.511405 603.833033 152.99451zM696.515922 166.415171c-2.618641-9.80225-6.767124-12.296047-14.110369-8.700149C685.620781 163.036213 688.827823 167.827333 696.515922 166.415171zM638.290823 156.738787c-4.376681-2.864234-6.809079-5.694699-8.647961-5.349845-2.358721 0.437975-4.235464 3.433192-6.319939 5.329379 1.687432 1.77032 3.420913 5.022387 5.048993 4.970198C630.957811 161.605631 633.469004 159.313425 638.290823 156.738787zM671.699724 149.131529c-4.78805-2.041496-8.035-3.634784-11.450796-4.684696-0.594541-0.184195-1.890047 1.910513-2.863211 2.953262 2.951215 1.966795 5.77861 4.187369 8.942673 5.703909C667.022191 153.434531 668.915307 151.255912 671.699724 149.131529z" p-id="1783" fill="#1296db"></path><path d="M287.326473 161.164586c-5.131881-4.300956-5.365194-7.686053-1.191128-11.063987 7.03523-5.692652 12.335956-13.842263 23.113417-13.951757 4.109598-0.039909 8.27957-2.698458 12.267395-4.504594 9.162684-4.15053 9.587356-5.633301 4.945639-14.808264-0.618077-1.221828-1.795902-2.467191-1.747807-3.663436 0.118704-3.01773-0.234337-7.617491 1.449002-8.694009 3.828188-2.444679 7.329942-1.162476 9.395998 4.001127 3.957125 9.885138 6.576789 10.69969 16.239869 6.864338 9.144264-3.626597 18.234293-7.404644 27.480888-10.747785 2.715855-0.982374 6.022157-1.3743 8.810666-0.809435 2.63092 0.532119 4.933359 2.680039 7.381108 4.114714-2.278903 2.325975-4.184299 5.951549-6.907317 6.735401-8.871041 2.553149-18.136056 3.717671-27.054169 6.139837-4.106528 1.113357-7.876388 3.713578-11.546987 6.03853-1.109264 0.705058-2.28095 3.349281-1.820462 4.046153 0.852414 1.292436 2.808976 2.188852 4.453429 2.526543 1.517563 0.311085 3.306302-0.093121 4.843308-0.588401 16.198937-5.220908 30.709419 0.794086 46.077432 5.116531 13.022595 3.664459 17.865903 13.512758 25.421996 22.293749-4.41352 4.467755-8.818853 4.996804-13.407358 1.682315-8.820899-6.374174-17.486256-12.96222-26.238594-19.429515-1.047866-0.772596-2.315742-2.054799-3.340071-1.929955-14.656815 1.774413-29.939893-0.743944-43.268456 9.113565-13.400195 9.908674-21.37789 23.088858-26.185382 38.321794-2.464121 7.810896-2.228761 16.446577-4.324492 24.414039-0.706081 2.685155-4.845355 4.466732-7.413853 6.659677-1.935072-2.612501-5.799076-5.476735-5.499248-7.800663 2.236947-17.312294 5.051039-34.391275 18.931165-47.406706 6.839779-6.41613 12.220323-14.421454 17.978467-21.924335 0.828878-1.080611 0.741897-4.229325-0.127913-4.932336-1.385557-1.124614-4.366448-1.997494-5.659907-1.24127-8.555863 4.990664-16.755616 10.588149-25.243941 15.699564C299.351344 154.919349 293.279045 157.935032 287.326473 161.164586z" p-id="1784" fill="#1296db"></path><path d="M132.180973 309.785485c-0.64059-7.505951-4.632507-11.083429-11.269671-9.56075 1.048889-7.249101 0.618077-14.743796 3.351328-20.808932 4.459568-9.900487 10.497075-19.2269 16.957207-27.993564 1.721201-2.334161 7.992021-3.385097 11.162224-2.233877 16.619516 6.027274 20.761859 22.277376 9.999748 36.647665-1.50733 2.013867-2.75781 4.221138-4.129041 6.339382 0.695848 0.63138 1.390673 1.261737 2.087545 1.89414 3.966335-3.568269 8.983605-6.479575 11.69639-10.828626 7.515161-12.051477 16.996093-18.842137 31.82073-16.242939 2.174526 0.38067 4.959965-2.004657 6.943133-1.401929 2.89698 0.880043 6.812149 2.799766 7.624654 5.186116 1.482771 4.350075-1.633197 6.277984-6.180769 5.767354-2.987031-0.334621-6.024204-0.312108-9.036817-0.299829-14.173814 0.058328-24.312732 7.54279-32.132838 18.402115-5.367241 7.453762-10.854209 15.122419-14.458293 23.481807-6.873548 15.943111-10.809183 32.235169 1.979074 47.834448 2.209318 2.695389 2.233877 7.182586 3.26537 10.839883-3.351328-1.62808-6.834662-3.045359-10.028401-4.943592-4.187369-2.485611-7.398504-5.723352-6.124488-11.323906 0.162706-0.717338 0-1.973958-0.478907-2.302439-10.834766-7.440459-4.650927-16.271592-2.117221-24.806989 1.010003-3.403516 2.173502-6.771217 2.965541-10.223852C148.939659 310.719764 145.161612 307.021535 132.180973 309.785485zM141.695674 282.839787c2.14178 2.821255 3.938706 7.340175 6.946202 8.391111 1.974981 0.689708 7.546883-3.158946 8.226359-5.813403 1.159406-4.524037 7.353478-9.570983 1.264806-15.065114-2.785439 2.24411-4.985548 4.0175-7.187703 5.791913-0.710175-0.243547-1.420349-0.488117-2.131547-0.732687 0.214894-3.527336 0.569982-7.054673 0.577145-10.579963 0.00307-1.469468-0.303922-3.557012-1.26276-4.223185-0.855484-0.591471-3.308349-0.116657-4.177136 0.76134-3.614317 3.64604-7.578606 7.231705-10.0591 11.610432-1.62501 2.871397-0.925069 7.055696-1.266853 10.652618C135.549697 283.377022 138.47533 283.120173 141.695674 282.839787zM147.475308 307.501466c1.648546 0.704035 3.297093 1.410116 4.945639 2.113127 1.378393-3.179412 2.75781-6.359848 4.137227-9.541307-1.574868-0.473791-4.28049-1.696642-4.541433-1.298576C150.217768 301.493635 148.928403 304.552298 147.475308 307.501466z" p-id="1785" fill="#1296db"></path><path d="M170.597935 340.086605c-11.339256-8.383948-11.725042-10.890025-4.840238-23.443945 2.864234-5.221932 4.76656-11.088546 8.268314-15.798824 1.941212-2.612501 7.874341-5.617951 9.223059-4.63353 3.183506 2.325975 4.76042 6.901177 6.821359 10.659781 0.268106 0.488117-0.74599 1.556449-0.647753 2.287089 0.287549 2.14178 0.836041 4.246721 1.283226 6.367011 1.77646-1.62808 4.681626-3.009544 5.111414-4.939499 1.050935-4.743024 0.714268-9.778714 1.449002-14.618952 0.332575-2.193968 1.890047-5.969968 2.871397-5.962805 2.750647 0.021489 5.984295 1.058099 8.063653 2.826372 1.345648 1.144056 1.906419 4.597715 1.248434 6.462179-2.323928 6.581905-5.768377 12.783141-7.876388 19.417235-0.99056 3.120061-0.840134 7.277754 0.397043 10.30981 4.454452 10.907421 3.14462 16.434298-7.291057 23.090904-0.497327-2.295276-0.800225-4.279467-1.370207-6.183839-0.654916-2.183735-1.549286-4.294816-2.339278-6.437619-2.408863 1.478677-6.30152 2.488681-6.940063 4.520967-1.815345 5.767354-6.15007 7.248078-10.942213 8.051373-2.38635 0.401136-5.007037-0.593518-7.521301-0.955768 0.73985-2.165316 1.354857-4.383844 2.260483-6.478552C168.456155 343.16471 169.484577 341.873298 170.597935 340.086605zM170.807712 325.066517c8.579399-4.278443 12.145621-11.20418 9.567913-18.591427C171.692872 309.414025 168.818405 315.000254 170.807712 325.066517zM182.642249 325.305971c-2.490727 3.143597-4.979408 6.28924-7.469112 9.431813C183.321724 336.102874 186.156282 333.2325 182.642249 325.305971z" p-id="1786" fill="#1296db"></path><path d="M894.702704 545.364899c3.947915 6.000668 10.339486 4.183276 27.67327-8.292873-7.563256-4.491291-14.546298-8.942673-21.883403-12.707416-1.284249-0.659009-4.056386 1.578961-6.282077 2.537799 0-4.26207 0-9.156544 0-14.759145 14.869662 15.908318 47.77612 34.183544 56.213279 16.110933 0 7.968485 0 14.44192 0 22.221094-4.329609-7.318686-13.157671-10.709923-21.880333-7.080256-10.553357 4.391007-20.361747 10.603499-30.348192 16.279778-1.307785 0.743944-1.759063 2.991124-3.175319 5.570879 4.671393 0 8.178263 0 11.983939 0-4.564969 4.192485-9.343809 7.367805-12.416797 11.741415-3.034103 4.324492-2.725064 8.619308 4.491291 9.647731 11.924587 1.699712 23.706935 4.408403 35.643802 5.980201 3.498684 0.459464 7.317663-1.487887 11.847839-2.532683-0.783853 4.983501-1.785669 11.399631-2.792603 17.812691-2.212388-7.835456-8.598842-7.9296-14.482853-8.928347-9.722432-1.645476-19.396769-3.590781-29.15604-4.991688-2.930749-0.419556-8.341992-0.10847-8.680706 1.035586-1.001817 3.370771-0.88516 7.66047 0.405229 10.962679 1.379417 3.527336 4.591575 6.337335 6.056949 10.806113-4.836145-2.581802-9.668197-5.167696-12.957103-6.925736C888.3009 587.749218 891.463939 566.796 894.702704 545.364899z" p-id="1787" fill="#1296db"></path><path d="M886.771057 753.423515c-3.191692 5.485945-6.381337 10.971889-10.19827 17.534352-0.954745-12.871145-39.496549-34.655288-49.935296-29.714765 7.330966-11.472286 14.168698-23.304775 22.212908-34.253128 3.573385-4.863774 9.93221-5.511527 15.734356-2.238994 5.944386 3.353374 8.165983 8.673543 7.272637 15.217586-0.403183 2.914376-1.62194 5.717212-3.111874 10.747785 12.490475-2.544963 23.737634-4.838192 34.732036-7.079232-1.369184 5.374404-4.457522 10.012028-12.597923 10.371208-7.351432 0.329505-14.72333 1.517563-21.921265 3.064802-3.185552 0.685615-5.976108 3.206018-9.262968 5.069459C869.101629 752.876046 879.026676 756.512876 886.771057 753.423515zM857.028663 742.962256c3.292999-6.02625 6.655584-11.066033 8.894577-16.569374 2.434445-5.978155 1.016143-11.353582-5.27719-14.538111-5.92085-2.996241-10.730389-1.294482-14.192234 3.969405-3.232624 4.91187-6.011924 10.123568-9.093099 15.382339 2.52552 1.705851 4.03592 2.859118 5.67014 3.809769C847.260182 737.480404 851.544765 739.858568 857.028663 742.962256z" p-id="1788" fill="#1296db"></path><path d="M833.900919 757.983367c-17.654079-4.730745-22.512736 9.775644-32.07144 19.303648 5.999644 5.0142 11.338233 9.475815 16.590863 13.868869 9.382695-8.618285 9.773598-10.501168 5.898337-21.394263 6.060019 5.052063 12.119015 10.100032 18.182105 15.154141 0.042979 1.025353 0.090051 2.048659 0.132006 3.068895-10.568706-7.693216-15.814174-2.451842-20.85498 6.861268 1.678222 1.170662 3.382027 2.533706 5.246491 3.625574 5.058203 2.970658 11.269671 9.235338 15.06716 8.037047 9.101285-2.888793 15.592117-19.672038 13.368472-28.401864-0.583285-2.284019-1.180895-4.569062-1.927909-7.432273 10.455119 6.545066 12.124132 14.734586 5.26798 22.890336-8.061606 9.587356-16.160051 19.145036-25.009603 29.622668 1.397836-12.574387-31.906687-40.59558-44.602847-36.630269 10.425444-12.369725 19.080567-23.901363 29.297256-33.824363 2.367931-2.296299 10.06831 0.904603 15.31787 1.577938C833.833381 755.531526 833.868173 756.75847 833.900919 757.983367z" p-id="1789" fill="#1296db"></path><path d="M704.727954 851.953575c4.562922-2.318812 9.490142-4.826935 12.990872-6.603395 0.74292 5.078669 0.411369 10.229992 2.302439 14.365172 5.983271 13.0799 12.797467 25.778106 20.279882 40.590464-12.551874-2.057869-19.950378-9.594519-28.604478-14.352893-8.997931-4.942569-17.546631-10.703783-26.287713-16.109909-0.531096 0.455371-1.058099 0.916882-1.591241 1.375324 6.443759 12.480242 12.653181 25.091468 19.561521 37.313837 1.157359 2.044566 5.333472 2.37714 9.054213 3.886517-5.126764 2.716878-10.146081 5.378497-13.935384 7.388271-0.792039-5.207605-0.577145-10.280134-2.399653-14.471596-4.245697-9.771551-9.136078-19.312858-14.482853-28.522614-1.866511-3.216251-5.849218-5.199419-8.91095-7.779174 6.843872-7.080256 11.735275-7.788383 21.276582-1.890047 10.850116 6.697539 21.753443 13.307074 33.466206 19.182898C720.432635 874.975918 719.922005 859.471806 704.727954 851.953575z" p-id="1790" fill="#1296db"></path><path d="M166.49857 678.181857c7.67889 11.186783 7.682983 11.186783-0.190335 23.472598-6.335289 9.886161-12.67774 19.763113-19.258623 30.024827 13.345959-0.76748 33.178657-13.552667 34.413787-23.799032 3.254114 6.53995 5.680373 11.411911 7.429203 14.926968-5.345752 1.01512-10.689457 1.133823-15.255449 3.081175-10.313903 4.39817-20.230764 9.724479-30.335912 14.614859-2.559289 1.239224-5.220908 2.266623-8.849552 2.426259 7.644097-19.054985 20.852934-34.626635 29.240975-53.797253-12.611226 6.214539-25.331945 12.219299-37.712927 18.862603-1.913583 1.028423-2.260483 4.970198-3.843538 8.79941-2.711761-5.220908-5.313006-10.228969-7.915273-15.238053 6.427386 4.591575 11.726066 1.326205 17.160845-1.410116 9.05319-4.555759 18.34481-8.66945 27.186176-13.598716C161.644005 684.829254 163.680385 681.247682 166.49857 678.181857z" p-id="1791" fill="#1296db"></path><path d="M464.000288 957.534216c10.495028-6.680143 14.57188-48.781006 6.480598-56.220443 13.280468-1.812275 14.981203-0.950651 20.401656 10.0591 5.52176 11.220552 11.100826 22.409382 17.025769 34.366715 6.040576-14.296611 5.332449-35.644825-2.475378-42.153052 7.148817 0.534166 12.55699 0.937348 16.241916 1.215688-1.915629 5.15951-4.730745 9.964956-5.386684 15.052834-1.779529 13.761422-2.642177 27.643594-4.064572 43.653219-9.764388-8.348132-11.777231-18.834974-16.60212-27.504424-4.882194-8.769734-9.118682-17.903765-13.920034-27.442002-6.306636 13.507642-5.947456 44.768623 0.007163 50.537C476.159212 958.609711 470.610846 958.116477 464.000288 957.534216z" p-id="1792" fill="#1296db"></path><path d="M427.95228 892.38645c16.680914 0.217964 29.498848 13.0799 29.158087 29.263487-0.364297 17.259082-13.294794 30.763654-29.185716 30.485315-17.318434-0.300852-30.532387-13.183254-30.146601-29.388331C398.197606 905.136845 411.086148 892.168486 427.95228 892.38645zM450.522322 918.667c-1.341554-12.098549-6.121418-19.170618-15.670911-21.680788-9.819646-2.573615-19.203364 1.159406-24.037463 10.869558-2.730181 5.486968-4.493338 11.790534-5.15644 17.893532-1.070378 9.861602 5.347798 18.793018 14.154371 21.62246 8.995885 2.88777 17.891486-0.138146 23.073508-9.240455C446.295044 932.136779 448.034664 925.18853 450.522322 918.667z" p-id="1793" fill="#1296db"></path><path d="M341.110423 877.217982c0.13303 16.003486-13.677511 30.695093-29.131481 30.994921-16.277732 0.313132-30.28884-13.122879-30.454616-29.209252-0.169869-16.413831 13.156648-30.586622 29.034267-30.877241C327.230298 847.823512 340.9733 860.910575 341.110423 877.217982zM334.664617 872.104521c-0.057305-10.614755-9.335622-19.49603-20.273742-19.401886-12.851703 0.107447-26.65201 16.269545-26.386974 30.900777 0.201591 11.057847 9.151427 20.151969 19.716041 20.036335C320.776306 903.497509 334.746482 887.149169 334.664617 872.104521z" p-id="1794" fill="#1296db"></path><path d="M575.042313 899.354142c1.791809 4.851495 3.62762 9.82374 5.463432 14.798031-0.62524 0.396019-1.249457 0.792039-1.87879 1.187035-1.673106-1.863441-3.319605-3.75451-5.02955-5.583159-9.722432-10.388605-23.708981-9.339716-31.457456 2.352581-10.029424 15.132652-1.564635 38.246069 15.365966 41.944298 12.345166 2.701528 22.733771-6.123464 19.682271-17.185404-0.901533-3.27765-4.164856-5.9055-6.568602-9.123798 4.871961-0.717338 11.247158-1.651616 20.049638-2.944052-12.026918 9.522887-1.860371 19.837814-4.469801 27.244504-4.790096 0.976234-9.075703 1.036609-12.589736 2.711761-13.270235 6.320962-26.106588 4.774747-35.490306-4.91187-8.735965-9.014304-10.720156-24.625864-4.567016-35.96205 6.347568-11.68718 17.561981-16.382109 32.150234-13.821797C568.340681 900.524804 571.203892 899.68467 575.042313 899.354142z" p-id="1795" fill="#1296db"></path><path d="M908.804886 701.32188c1.198292 2.26253 2.029216 3.821025 3.562129 6.699586-7.668657-1.478677-13.970176-2.696412-20.272719-3.911076-0.069585-0.706081-0.144286-1.416256-0.209778-2.122337 2.949168-0.74906 5.90857-1.440815 8.840342-2.248204 11.04966-3.053546 18.406209-11.751648 16.748453-21.152762-0.626263-3.542686-3.341095-8.276501-6.275937-9.401114-2.800789-1.072425-8.022721 0.86674-10.593266 3.217275-4.799306 4.383844-8.323573 10.132778-12.605086 15.119349-6.584975 7.66661-12.982686 9.660011-19.317974 6.342452-6.244214-3.267417-9.153474-11.354606-6.338359-20.236903 1.358951-4.293793 4.426823-8.035 6.563486-12.102642 1.230014-2.346441 2.148943-4.857635 3.710508-8.450463 4.370541 0.553609 9.901511 1.25355 15.433504 1.954515 0.138146 0.716314 0.276293 1.431605 0.415462 2.14792-2.579755 0.877997-5.157463 1.76111-7.739265 2.63092-9.272177 3.131317-15.880689 10.302647-15.286148 18.173918 0.252757 3.28379 2.51938 7.635911 5.194302 9.125845 2.121314 1.183965 7.222495-0.25378 9.31618-2.275833 5.28947-5.096065 9.510608-11.282974 14.378475-16.842597 4.757351-5.434779 10.345626-9.442046 17.995863-6.102998 7.892761 3.441379 10.206456 10.201339 9.641591 18.238386C921.325038 689.246867 916.628062 696.027293 908.804886 701.32188z" p-id="1796" fill="#1296db"></path><path d="M134.187677 566.730509c-7.567349-6.374174-15.316847-13.111622-23.38664-19.441794-1.108241-0.868787-4.348028-0.424672-5.672186 0.604774-9.379625 7.284917-18.515702 14.882965-27.517727 22.211884 0-5.042853 0-11.385305 0-16.102746 12.302187 2.623757 16.190751-9.541307 26.579355-12.841469-7.749498-5.942339-13.600763-10.809183-19.910469-14.979156-1.412163-0.932232-4.438079 0.579191-7.242961 1.050935 0-3.892657 0-9.074679 0-13.475919 7.738241 6.610558 15.956414 13.414521 23.901363 20.527522 3.501754 3.134387 6.284123 3.381004 9.886161 0.186242 7.386224-6.548136 15.036461-12.799514 22.678512-19.255553 0 5.308913 0 11.418051 0 17.320481-11.004635-5.819542-13.598716 7.106862-21.508873 8.968256 9.437953 12.006452 17.014512 15.531741 22.194488 9.698896C134.187677 557.26595 134.187677 562.52472 134.187677 566.730509z" p-id="1797" fill="#1296db"></path><path d="M661.299863 872.963075c0.382717 5.562692-0.020466 10.80816 1.24741 15.611559 2.01796 7.65433 5.516644 14.906501 7.719822 22.527063 3.464915 11.970636-2.524496 22.317285-14.658861 26.306132-12.638855 4.157693-23.011086-0.153496-27.658943-11.82942-3.244904-8.142447-5.649674-16.641005-9.248641-24.608467-1.563612-3.463891-5.194302-5.991458-8.253988-9.347902 4.586458-1.730411 10.742668-4.054339 15.659655-5.909593 0 5.092995-1.010003 10.045797 0.215918 14.366196 2.381234 8.405437 5.745864 16.565281 9.212826 24.609491 3.488451 8.096399 11.263531 11.05273 19.868513 8.211009 7.995091-2.635013 13.441127-10.752902 11.192923-18.569938-2.949168-10.243295-6.653537-20.306488-10.752902-30.150694-1.031493-2.472308-4.797259-3.810792-7.913227-6.117324C652.763442 876.220259 657.859507 874.27393 661.299863 872.963075z" p-id="1798" fill="#1296db"></path><path d="M261.299703 880.214223c-4.340865-3.347235-9.128915-7.02909-14.642488-11.279904 7.259334-0.704035 15.649422-10.971889 12.392238-15.613606-4.007267-5.708002-10.812253-11.30958-17.370623-12.844539-6.407943-1.50426-12.710486 8.095375-11.485589 15.46625-4.576225-3.611248-8.507768-6.711865-11.845793-9.346879 5.024433-2.100848 9.864672-3.535523 14.104229-6.003737 12.05557-7.019881 23.812335-14.553461 35.82595-21.647019 1.797949-1.064238 5.609765-1.853208 6.291287-1.001817 1.369184 1.709945 2.167363 4.910846 1.549286 7.010671-3.939729 13.379729-8.521071 26.572192-12.459776 39.951921C262.279007 869.585141 262.120394 874.629018 261.299703 880.214223zM261.343705 848.662623c2.876514-8.889461 5.324262-16.454764 7.774057-24.019043-0.652869-0.337691-1.303692-0.676405-1.956561-1.01512-6.581905 4.1536-13.165858 8.306176-20.868283 13.162788C251.519965 840.914148 255.849574 844.328921 261.343705 848.662623z" p-id="1799" fill="#1296db"></path><path d="M96.040868 653.513014c-2.161223-6.341429-3.631714-10.653641-5.284353-15.498996 16.423041 5.567809 32.763195 2.787486 48.783053 4.087085 2.728134 0.221034 5.582135-0.306992 8.190543 0.311085 2.326998 0.552585 5.072529 1.759063 6.29231 3.572362 0.6191 0.920976-1.218758 4.414543-2.793626 5.744841-11.087523 9.377578-22.49841 18.372439-33.565467 27.77253-3.182482 2.700505-5.579065 6.326079-8.874111 10.157337-1.854231-4.977361-3.923356-10.532891-6.222725-16.70138 6.332219 2.727111 19.531845-1.838881 19.043728-6.92983-0.679475-7.055696-3.233648-15.441691-8.029884-20.159132C108.703259 641.063471 98.787422 645.593648 96.040868 653.513014zM119.74985 646.003993c2.339278 6.396687 4.149507 11.348466 6.347568 17.35425 7.078209-5.698792 13.161764-10.601452 19.247366-15.498996-0.336668-0.6191-0.672312-1.236154-1.007957-1.855254C136.642588 646.003993 128.947326 646.003993 119.74985 646.003993z" p-id="1800" fill="#1296db"></path><path d="M799.79924 842.653769c-5.596462-14.602579-10.151197-27.197432-15.386432-39.502689-0.989537-2.326998-4.694929-3.492544-7.780197-5.632277 2.408863-2.254344 6.074346-5.687536 10.094916-9.454326 0.89744 17.558911 9.897418 31.844266 14.374382 47.509037 1.357927 4.757351 1.991354 9.720386 2.957355 14.589276-4.949732-1.401929-10.152221-2.237971-14.790868-4.324492-10.726296-4.825912-21.110807-10.420327-31.783891-15.369036-3.770883-1.749854-7.985882-2.536776-12.848633-4.02671 4.130064-3.834328 8.67252-8.055466 13.21293-12.272511-2.932796 6.696516 1.158383 8.785084 5.624091 10.996448 9.320273 4.616134 18.508539 9.493212 27.807323 14.165628C793.449625 840.425008 795.816532 841.118809 799.79924 842.653769z" p-id="1801" fill="#1296db"></path><path d="M348.815919 928.018995c3.444449-3.643993 7.139607-6.074346 8.710382-9.481955 4.795213-10.414187 8.824993-21.188578 13.056364-31.857569 2.87242-7.231705 1.032516-10.078543-6.771217-10.001795-2.614547 0.030699-5.325285 0.977257-7.792477 1.9934-2.175549 0.892323-4.072759 2.464121-6.091742 3.738138-0.546446-0.48607-1.090844-0.969071-1.636267-1.454118 3.325745-4.078899 6.65149-8.156774 9.595542-11.764951 13.591553 5.564739 26.51591 10.856255 40.372499 16.526395-0.2415 4.318352-0.531096 9.489118-0.905626 16.189727-3.774977-6.517437-5.809309-11.905144-9.444093-15.799848-4.002151-4.294816-8.230452-4.38896-10.754948 2.720971-3.836375 10.809183-8.580422 21.288862-12.749372 31.980365-1.74883 4.488221-5.120624 9.455349 4.157693 12.497639-0.931209 0.490164-1.860371 0.977257-2.790556 1.465374C359.68957 932.346557 353.607038 929.924391 348.815919 928.018995z" p-id="1802" fill="#1296db"></path><path d="M219.000318 761.995751c3.947915 5.070482 7.984858 10.251481 12.022825 15.428388-6.547113-4.563946-10.533914-0.115634-14.763239 3.188622-6.889921 5.387707-13.696953 10.885931-20.741393 16.061814-7.90811 5.813403-14.497179 5.884011-21.877263 0.737804-7.716752-5.378497-12.136412-14.866592-9.948583-22.623253 0.765433-2.717901 2.501984-5.67014 4.697999-7.294127 1.534959-1.136893 4.604878-0.193405 6.990205-0.177032-0.815575 1.980097-1.064238 4.796236-2.542916 5.803169-6.541997 4.456498-6.354731 9.741875-2.455935 15.488763 4.52506 6.665817 11.69025 8.850575 17.739013 4.620227 9.613962-6.723122 18.888186-13.993712 27.799136-21.629623C217.948359 769.862929 217.89924 765.699096 219.000318 761.995751z" p-id="1803" fill="#1296db"></path><path d="M126.971321 327.581804c2.653433-3.856841 5.307889-7.714705 8.093329-11.763928 4.536316 5.771447 1.845021 16.726963-4.560876 21.670555-3.958148 3.055592-22.502503-1.839905-26.057469-6.879688-3.976568-5.636371 0.478907-18.842137 10.063193-24.588001-2.264577 4.989641-4.367471 8.001231-4.903683 11.268648-0.529049 3.218298 0.532119 6.697539 0.896416 10.06217 2.278903-2.14792 4.612041-4.241604 6.797823-6.478552 0.508583-0.520863 0.330528-1.673106 0.799202-2.279926 1.470491-1.902326 3.099594-3.683902 4.6673-5.511527 0.485047 2.175549 1.181919 4.332678 1.39886 6.535857 0.245593 2.473331 0.057305 4.988618 0.057305 7.484462C125.137557 327.260485 126.054439 327.422168 126.971321 327.581804z" p-id="1804" fill="#1296db"></path><path d="M882.081245 617.860003c4.007267 12.633738 45.696762 23.902386 55.207369 15.269775-1.864464 7.526417-3.39533 13.703093-4.556783 18.393929-4.453429-2.768043-8.330736-6.282077-12.877285-7.78429-10.125615-3.347235-20.50808-6.049786-30.948873-8.238638-3.420913-0.717338-7.345292 0.971118-11.922541 1.703805C878.265336 632.344902 879.948675 625.960495 882.081245 617.860003z" p-id="1805" fill="#1296db"></path><path d="M238.551606 784.78171c4.548596 4.842285 9.096169 9.69071 12.435217 13.242606-4.691859 2.032286-9.674337 3.077082-13.177114 5.937223-8.05956 6.570649-15.680121 13.748119-22.88829 21.25407-2.792603 2.904143-3.989871 7.336082-6.26775 11.759835-3.074012-3.227508-7.563256-7.938809-10.863419-11.400654 4.386914-2.031263 9.136078-3.196809 12.511965-6.004761 7.996115-6.656607 15.334243-14.096043 22.950711-21.206998 3.773953-3.518127 8.637728-6.630001 2.512217-13.671371C236.692259 784.724405 237.622444 784.753057 238.551606 784.78171z" p-id="1806" fill="#1296db"></path><path d="M740.285798 828.069609c-4.826935 12.31549 20.638039 47.589878 33.388435 46.731324-6.363941 4.762467-11.42419 8.546653-15.180747 11.352559-1.803066-4.975315-2.750647-10.147104-5.365194-14.258749-5.41943-8.506744-11.43954-16.678868-17.806551-24.505114-2.547009-3.130294-6.667863-4.972245-10.691503-7.847735C728.26195 836.881298 733.490022 833.047993 740.285798 828.069609z" p-id="1807" fill="#1296db"></path><path d="M136.754129 574.032822c1.118474 6.244214 2.258437 12.598946 3.109828 17.355273-4.971222-0.797156-9.79304-2.591011-14.367219-2.095731-10.32516 1.112334-20.62269 2.965541-30.737048 5.344728-3.930519 0.924045-7.338129 4.078899-11.542894 6.544043-0.860601-4.744048-2.02103-11.149944-3.180436-17.553795 5.000897 7.791453 11.880585 5.02955 17.35118 3.273557C110.047884 582.833255 125.674792 587.281567 136.754129 574.032822z" p-id="1808" fill="#1296db"></path><path d="M125.384174 612.363825c4.113691 1.586125 8.226359 3.171226 10.844999 4.181229 3.357468-3.190669 5.681396-5.398964 8.005324-7.609305 1.169639 1.62194 2.339278 3.240811 3.50687 4.861728-3.341095 2.111081-6.748704 6.014994-10.003841 5.89322-4.476965-0.169869-8.835226-3.390213-13.242606-5.302773C124.790656 613.71459 125.087415 613.039207 125.384174 612.363825z" p-id="1809" fill="#1296db"></path><path d="M418.245198 514.204202c5.201465-15.152095 10.07138-29.390377 14.983249-43.614333 1.691525-4.898567 1.575892-9.188266-3.611248-11.980869-6.442736-3.467985-11.024078-2.01182-13.72049 4.835122-4.819772 12.234649-9.351995 24.583908-14.042831 36.871769-1.152243 3.018753-2.457981 5.975085-3.838422 9.312086-8.857738-1.459235-17.234523-2.610454-25.507954-4.272303-7.554046-1.51654-11.94403-5.983271-12.215206-14.20042-0.456395-13.921058-1.258667-27.832905-1.958608-42.662659 3.551896-0.162706 6.456039-0.411369 9.361205-0.412392 75.407434-0.074701 150.815891-0.12996 226.224348-0.167822 12.570293-0.00614 12.778024 0.243547 12.754488 13.037944-0.026606 16.179494-0.223081 32.360012-0.011256 48.53439 0.064468 5.134951-1.547239 7.722892-6.643304 9.503445-17.260106 6.030343-23.503297 14.94641-23.444968 33.184797 0.085958 25.725918 8.463766 47.246047 34.280758 61.201897-61.119009 0-120.022561 0-178.924065 0 24.166399-10.491958 29.589922-31.002085 28.337395-54.086849C458.87864 533.665439 439.779653 522.940167 418.245198 514.204202z" p-id="1810" fill="#1296db"></path><path d="M385.647779 702.340069c0-20.230764 0-39.588647 0-59.606563 89.311095 0 178.206728 0 268.035616 0 0 19.720134 0 39.450501 0 59.606563C564.481793 702.340069 475.557508 702.340069 385.647779 702.340069zM511.648494 668.994614c4.628414-7.41283 4.444219-12.372795-0.615007-16.581654-6.018064-5.003967-19.445888-5.284353-25.451672-0.199545-6.15928 5.216815-5.625114 11.203156-1.01205 17.066701-5.892197 7.804756-6.16542 13.44829-1.054005 18.282389 6.216585 5.877871 22.88522 5.958712 29.15604 0.14224C518.032902 682.727383 517.699304 676.674527 511.648494 668.994614zM525.280979 680.07088c-0.503467 1.175779-1.007957 2.353604-1.512447 3.529383 3.393283 2.515287 6.449899 5.963829 10.254551 7.362688 8.600889 3.165086 17.886369 0.181125 22.227234-6.083555 5.129834-7.410783 5.157463-21.566178 0.058328-28.998451-4.296863-6.260587-13.482059-8.953929-22.223141-6.514367-7.919367 2.208295-11.80486 7.972579-10.782577 16.004509 0.969071 7.637957 6.719028 12.382005 14.979156 12.125155 2.631944-0.078795 5.246491-0.686638 8.385994-1.12359-1.272993 6.188956-3.957125 7.574512-9.454326 5.519714C533.522688 680.514995 529.27699 680.622442 525.280979 680.07088zM601.181647 661.001569c0.534166-1.052982 1.066285-2.108011 1.600451-3.160993-2.949168-2.625804-5.495154-6.138814-8.9263-7.701402-8.336876-3.787256-18.283412-1.080611-22.978341 5.350868-5.836939 7.996115-5.768377 22.920012 0.14224 30.136368 5.013177 6.126534 16.054651 8.351202 24.12956 4.861728 6.605442-2.854001 9.773598-8.988722 8.017604-16.041348-1.841951-7.404644-7.03216-10.80816-14.377452-10.930957-2.614547-0.041956-5.244444 0.785899-8.798387 1.36816 1.11745-5.572926 3.216251-7.711636 8.487302-6.263657C592.619644 659.757229 596.942089 660.232043 601.181647 661.001569zM439.281303 664.23317c0.775666 0.74599 1.550309 1.49198 2.323928 2.238994 2.598174 0.548492 5.197372 1.095961 8.53028 1.802042 0 6.204305 0.102331 12.17632-0.030699 18.141172-0.11768 5.288446 3.321652 5.29561 7.120165 5.326309 3.827165 0.029676 6.214539-0.877997 6.137791-5.442966-0.176009-10.640338 0.102331-21.288862-0.181125-31.925107-0.052189-1.983167-1.820462-5.528923-2.87549-5.559623-2.561335-0.072655-5.39794 1.119497-7.700379 2.509147-2.681062 1.614777-5.039783 3.848655-7.29822 6.057973C443.137121 659.503449 441.277774 661.938917 439.281303 664.23317z" p-id="1811" fill="#1296db"></path><path d="M614.876554 511.954975c0-20.496823 0-39.824007 0-59.874669 6.583952-0.288572 12.728906-0.556679 20.869307-0.913812-20.86726-32.060183-40.793078-62.677505-60.71992-93.291756-0.641613 0.075725-1.284249 0.151449-1.924839 0.228197 0 27.792996 0 55.584969 0 83.986833-8.647961 0-15.836687 0-23.63735 0-0.153496-2.992147-0.408299-5.664-0.409322-8.335852-0.023536-35.630499-0.020466-71.264067 0-106.893542 0.001023-8.416693 2.509147-11.091616 11.31879-10.810207 11.209296 0.357134 13.080923 3.441379 12.267395 10.896164-0.608867 5.572926-0.12075 11.265578-0.12075 18.030655 2.24718-1.226944 3.173273-1.654686 4.0175-2.203178 10.903328-7.094582 12.624529-6.750751 19.396769 3.650133 17.934464 27.547403 35.901675 55.078433 53.843302 82.622766 2.054799 3.1569 4.037966 6.357801 6.310729 9.943466-5.27719 3.756557-10.019191 7.131421-14.759145 10.507308 0.166799 0.711198 0.335644 1.421372 0.502443 2.131547 8.848529 0 17.711384 0.286526 26.542516-0.078795 9.057283-0.3776 18.09717 1.481747 27.145244-3.315512 3.956102-2.097778 10.737552 1.054005 16.220427 1.928932 4.210905 0.669242 8.395204 1.505283 15.182794 2.735297-3.860934 3.197832-6.846942 5.360078-9.434883 7.922437-1.680269 1.658779-3.786233 3.812839-3.959172 5.89015-0.541329 6.51846 0.447185 12.918217-7.806803 16.273638-3.50687 1.424442-0.724501 16.005532 3.022847 18.682501 0.443092 0.318248 0.992607 0.497327 1.403976 0.849344 5.709025 4.898567 4.060479 32.726356-2.187829 37.050848-5.036713 3.492544-4.731768 15.739473 0.281409 19.465331 1.841951 1.373277 4.327562 3.462868 4.424776 5.334495 0.466628 9.009188 0.870834 18.119683 0.023536 27.074635-0.699941 7.358595-7.378038 5.77554-12.387122 5.977132-4.932336 0.198521-9.975189-0.267083-10.31902-6.574742-0.460488-8.466835-0.332575-16.981766-0.028653-25.460882 0.067538-1.880837 1.493004-4.217045 3.015683-5.458315 8.253988-6.736425 8.355295-14.775518-0.01535-21.331841-4.640694-3.631714-5.579065-33.217543-0.320295-35.687804 10.848069-5.097088 4.455475-13.343913 6.061043-20.060895-0.567935-0.561795-1.133823-1.121544-1.701758-1.682315-2.951215 1.435699-6.167466 2.49789-8.810666 4.368494-19.158339 13.560854-40.492226 21.640879-63.498196 25.573445C621.756241 511.605004 618.742605 511.633656 614.876554 511.954975zM708.031187 563.553143c-2.917446 0.966001-5.863545 2.968611-7.129374 2.201132-9.471722-5.748934-7.709589 2.114151-8.082072 6.615675-0.401136 4.868891-0.695848 9.943466 0.300852 14.647605 0.49528 2.352581 3.846608 5.54632 6.122441 5.734608 3.292999 0.271176 9.399067-1.310855 9.745968-3.024893C710.718389 581.176522 711.771371 572.258409 708.031187 563.553143zM692.724573 520.813736c1.52268 5.118578-4.767584 17.131169 10.31595 12.31242 0.177032-0.056282 0.476861 0.233314 0.704035 0.38374 4.787026 3.201925 5.898337-0.298805 6.195096-3.793396 0.417509-4.898567-0.419556-9.94756 0.36532-14.755052 1.89414-11.603269-7.546883-8.182356-12.399401-8.819876-6.002714-0.788969-4.901637 5.082762-5.163603 8.995885C692.632475 516.7727 692.724573 518.42227 692.724573 520.813736z" p-id="1812" fill="#1296db"></path><path d="M347.373057 664.822594c7.414877-20.6319 14.558577-40.406269 21.632693-60.207243 15.842827-44.335764 31.642674-88.685855 47.497781-133.017526 0.822738-2.300392 1.541099-4.898567 3.12927-6.589069 1.24741-1.325182 4.242627-2.499937 5.592368-1.871627 1.812275 0.842181 3.743254 3.413749 3.886517 5.371334 0.188288 2.542916-1.213641 5.255701-2.130524 7.823176-21.908986 61.35437-43.698245 122.750695-65.970504 183.972035-2.645247 7.272637-0.737804 9.984399 5.586229 12.872169 15.654538 7.14984 15.540951 7.399527 9.756201 23.726378-4.757351 13.43294-5.463432 13.779841-18.769482 8.405437-13.452383-5.436826-26.790156-11.17041-40.336684-16.35448-7.141654-2.732228-8.888438-6.927783-6.51846-14.044878 6.962575-20.920472 6.826476-20.952194 27.717272-13.106506C340.97944 662.754492 343.574544 663.545508 347.373057 664.822594z" p-id="1813" fill="#1296db"></path><path d="M620.943736 637.341706c-67.319222 0-133.957945 0-201.947432 0 0-4.199649-0.448208-9.031701 0.119727-13.739932 0.627287-5.206582 4.7727-5.829775 9.268084-5.817496 25.504884 0.077771 51.009767 0.021489 76.513628 0.020466 33.456996-0.002047 66.916039 0.002047 100.374058 0.010233C621.79001 617.818047 624.155894 620.795868 620.943736 637.341706z" p-id="1814" fill="#1296db"></path><path d="M543.795659 442.384479c-9.365298 0-17.807574 0-26.976398 0-0.217964-2.6432-0.582261-5.01113-0.586354-7.380084-0.026606-38.661531 0.215918-77.324086-0.185218-115.980501-0.082888-8.002254 2.520403-11.115152 13.9405-11.402701 9.994632-0.251733 14.70798 2.791579 14.618952 10.8143-0.429789 38.929638-0.168846 77.868485-0.192382 116.806309C544.413735 437.389722 544.049438 439.538665 543.795659 442.384479z" p-id="1815" fill="#1296db"></path><path d="M440.675046 356.545462c10.396791-1.152243 20.794605-2.304486 31.18935-3.457752-27.03882-3.934612-52.569286 4.114714-78.293157 11.278881 0.865717-14.058181 7.483438-19.653619 19.762089-20.343327 20.453844-1.152243 40.876989-2.987031 61.275575-4.920056 3.740184-0.355087 7.602142-2.034333 10.893094-3.975545 6.390547-3.76986 12.591783-5.464455 19.161409-0.847298 5.705955 4.01136 7.66661 10.336416 5.02648 15.929808-1.988284 4.211928-7.344269 9.321296-11.492752 9.594519-17.46579 1.151219-35.044144 0.683569-52.578496 0.651846-1.659803-0.004093-3.315512-1.109264-4.972245-1.702782C440.655604 358.018 440.665837 357.281219 440.675046 356.545462zM494.202147 352.962867c0.560772 0.598634 1.12359 1.196245 1.686409 1.795902 2.153036-3.146667 4.870938-6.091742 6.118348-9.564843 0.376577-1.050935-3.311419-3.562129-5.500271-5.77247C495.502769 345.322863 494.851946 349.142865 494.202147 352.962867z" p-id="1816" fill="#1296db"></path><path d="M415.600975 414.58125c0-7.93267 0-14.665001 0-22.512736 3.589758 0 6.78452-0.001023 9.979282 0 25.183566 0.00921 50.369178 0.216941 75.54865-0.115634 6.334265-0.083911 8.651031 1.542122 8.579399 8.163937-0.151449 14.222933 0.184195 14.375405-13.660114 14.432711C469.537398 414.661068 443.024557 414.58125 415.600975 414.58125zM500.573251 393.835763c-0.730641 0.013303-1.461281 0.030699-2.191922 0.044002 0 6.319939 0 12.641925 0 18.96391 0.730641-0.016373 1.461281-0.030699 2.191922-0.045025C500.573251 406.477688 500.573251 400.155702 500.573251 393.835763z" p-id="1817" fill="#1296db"></path><path d="M415.695119 442.2361c0-8.125051 0-14.871709 0-22.610974 5.859451 0 11.261485-0.004093 16.663518 0.001023 23.281239 0.01535 46.565549 0.221034 69.843718-0.086981 5.960759-0.077771 7.419993 2.074242 7.458879 7.591909 0.110517 15.059997 0.317225 15.077394-14.659885 15.090697-23.283286 0.01842-46.566572 0.00921-69.849858 0.014326C422.200276 442.2361 419.250084 442.2361 415.695119 442.2361zM500.725724 421.279812c-4.882194 8.886391-4.232394 15.990183 0 18.948561C500.725724 433.773358 500.725724 427.52812 500.725724 421.279812z" p-id="1818" fill="#1296db"></path><path d="M415.727865 385.891837c0-7.472182 0-14.216793 0-21.402449 31.089066 0 61.654198 0 93.054349 0 0 7.161097 0 14.059204 0 21.402449C477.594911 385.891837 446.608176 385.891837 415.727865 385.891837zM500.581438 365.79308c-0.773619 0.067538-1.547239 0.1361-2.320858 0.206708 0 6.28003 0 12.561084 0 18.842137 0.773619 0.00307 1.547239 0.007163 2.320858 0.01228C500.581438 378.499473 500.581438 372.144742 500.581438 365.79308z" p-id="1819" fill="#1296db"></path><path d="M504.491491 679.008688c-0.290619 2.76395-3.854794 4.155646-6.339382 4.131087-1.789763-0.016373-5.763261-1.428535-5.763261-4.00522 0-2.179642 3.613294-4.246721 5.668093-4.257977C499.954151 674.866345 503.702522 675.868161 504.491491 679.008688z" p-id="1820" fill="#1296db"></path><path d="M545.978371 662.816914c-0.140193 4.181229-4.466732 4.803399-6.184863 4.843308-1.654686 0.035816-5.051039-1.532913-5.051039-3.811816 0-3.191692 2.65548-5.16872 4.644787-5.196349C541.456381 658.623405 545.978371 658.885372 545.978371 662.816914z" p-id="1821" fill="#1296db"></path><path d="M585.674465 682.8379c-4.41352-1.201361-4.050246-4.192485-4.078899-6.239098-0.021489-1.436722 3.472078-4.045129 4.591575-4.062526 1.911536-0.029676 4.559852 2.65855 4.957919 4.685719C591.422376 678.630065 591.258647 682.94944 585.674465 682.8379z" p-id="1822" fill="#1296db"></path><path d="M498.213507 656.380318c-2.921539 0-5.594415 1.428535-5.594415 3.390213 0 2.14178 3.481288 3.419889 5.097088 3.385097 1.378393-0.029676 4.474918-1.022283 4.787026-2.735297C502.87569 658.368602 501.072625 656.380318 498.213507 656.380318z" p-id="1823" fill="#1296db"></path></svg>