<?xml version="1.0" standalone="no"?><!DOCTYPE svg PUBLIC "-//W3C//DTD SVG 1.1//EN" "http://www.w3.org/Graphics/SVG/1.1/DTD/svg11.dtd"><svg t="1483862409477" class="icon" style="" viewBox="0 0 1024 1024" version="1.1" xmlns="http://www.w3.org/2000/svg" p-id="1948" xmlns:xlink="http://www.w3.org/1999/xlink" width="32" height="32"><defs><style type="text/css"></style></defs><path d="M953.671747 649.02684 953.671747 392.332527c0-69.368904-52.80567-126.379339-120.411417-133.072785l0 254.292614c0 106.794281-86.885859 193.681164-193.682187 193.681164L341.420485 707.23352c-20.367887 18.688641-40.554648 33.836643-60.101843 46.319955 22.86373 18.229177 51.79055 29.210275 83.323731 29.210275l322.385455 0c128.817877 131.417075 265.950118 104.959493 238.646262 84.361363-40.850383-30.7964-62.070684-61.142545-71.523987-88.938612C911.393851 763.059989 953.671747 711.051475 953.671747 649.02684z" p-id="1949" fill="#1296db"></path><path d="M773.333472 513.552356l0-256.69636c0-73.838705-59.884902-133.735887-133.754307-133.735887L184.284655 123.120109c-73.857125 0-133.735887 59.897182-133.735887 133.735887l0 256.69636c0 62.035892 42.275849 114.032126 99.533924 129.167848-9.465582 27.799136-30.67872 58.135048-71.53115 88.940658-10.703783 8.070816 3.89675 17.059538 33.350572 17.059538 45.652759 0 127.000486-21.552875 205.302853-101.419877l322.373175 0C713.447547 647.300522 773.333472 587.426877 773.333472 513.552356z" p-id="1950" fill="#1296db"></path></svg>