<?xml version="1.0" standalone="no"?><!DOCTYPE svg PUBLIC "-//W3C//DTD SVG 1.1//EN" "http://www.w3.org/Graphics/SVG/1.1/DTD/svg11.dtd"><svg t="1483966395734" class="icon" style="" viewBox="0 0 1024 1024" version="1.1" xmlns="http://www.w3.org/2000/svg" p-id="5555" xmlns:xlink="http://www.w3.org/1999/xlink" width="17" height="17"><defs><style type="text/css"></style></defs><path d="M845.742619 207.166293c12.398378 0 24.795732 0 37.195134 0 4.963035 10.446933 9.924024 20.901029 14.881942 31.351032 17.355273-10.450003 34.717709-20.904099 52.077076-31.351032 0 10.446933 0 20.901029 0 31.351032-2.482541 0-4.962012 0-7.440459 0 0 15.670911 0 31.356149 0 47.02706-17.652032 1.575892-18.405185 3.252067-29.758768 7.837502 5.254677 14.635325 7.386224 30.649044 7.440459 54.864562-4.957919-2.608407-9.923-5.220908-14.880919-7.837502-12.026918 10.18292 8.129144 14.756075-22.319331 23.51353 0 5.220908 0 10.44898 0 15.679098-7.436366 0-14.876826 0-22.313192 0-9.021467 16.671705-16.758686 17.058514-22.322401 39.185464-26.966165 5.734608-32.768311 19.48375-52.072983 31.346939 0-7.833409 0-15.676028 0-23.509437 2.479471 0 4.957919 0 7.440459 0 0-7.837502 0-15.676028 0-23.512507-4.962012 0-9.925047 0-14.881942 0-4.958942 19.542078-17.653055 35.418674-29.754674 47.021943-4.957919 0-9.91993 0-14.881942 0-7.160073 8.126075 6.91448 7.642051 7.440459 7.841595 8.477069 8.92937 0.024559 3.123131 14.876826 7.837502 0 5.229095 0 10.451026 0 15.675004 4.958942 0 9.918907 0 14.876826 0 2.483564-5.223978 4.963035-10.44591 7.440459-15.675004 12.398378 2.612501 24.796756 5.229095 37.196157 7.834432 0 5.229095 0 10.458189 0 15.680121-7.440459 0-14.877849 0-22.314215 0-11.788487 21.544689-18.381649 14.08581-22.322401 47.031153 17.777899 10.663874 24.918529 22.347984 29.762861 47.02399 4.958942 0 9.914814 0 14.873756 0-2.475378 7.835456-4.957919 15.673981-7.440459 23.512507 2.483564 0 4.967128 0 7.440459 0 0 2.613524 0 5.227048 0 7.833409-2.475378 0-4.957919 0-7.440459 0 0 2.618641 0 5.229095 0 7.841595 0.99977 2.925632 25.457812 11.131525 14.880919 39.188534-4.957919 2.618641-9.918907 5.221932-14.880919 7.838525 0 7.837502 0 15.675004 0 23.512507-2.474354 0-4.957919 0-7.433296 0-6.90527 11.901051-6.052856 19.155269-7.440459 39.188534-4.963035 0-9.925047 0-14.881942 0 0 5.227048 0 10.450003 0 15.677051-4.953825 0-9.91993 0-14.876826 0-5.246491 24.197098-14.497179 33.339316-37.196157 39.188534 0 2.613524 0 5.228071 0 7.832386-9.91993 0-19.839861 0-29.758768 0 0 5.230118 0 10.460236 0 15.681144-14.175861-7.742335 1.603521-4.582365-7.440459-15.681144-2.479471 0-4.957919 0-7.437389 0 0 5.230118 0 10.460236 0 15.681144-10.579963 9.593496-44.753273 12.812817-59.517535 15.673981 0 2.614547 0 5.227048 0 7.838525 19.726274 17.85874 11.595083 21.441335 7.440459 47.03013-12.398378 2.605338-24.797779 5.221932-37.201274 7.835456 0-10.450003 0-20.905122 0-31.347962 7.441483-2.617617 14.882965-5.228071 22.323425-7.841595-2.480494-7.837502-4.964058-15.676028-7.440459-23.51353-17.35732-2.612501-34.721803-5.226025-52.079122-7.837502 0-7.836479 0-15.673981 0-23.517623-31.886221-5.649674-46.390563-0.559748-89.271186 0 0 10.454096 0 20.906146 0 31.356149-2.475378 0-4.958942 0-7.440459 0-13.932314-21.385053-8.940626-7.443529-29.755698-15.673981-6.019087-10.305717-5.237281-9.234315-14.876826-15.681144 0-2.603291 0-5.219885 0-7.833409 2.482541 0 4.957919 0 7.436366 0 0.287549-3.105734-6.570649-17.58961-7.436366-31.355125-7.437389 0-14.881942 0-22.319331 0 3.335978-24.52251 5.484921-23.861454 14.877849-39.181371 2.479471 0 4.962012 0 7.440459 0 8.376785-20.169365-5.079692-41.012066-7.440459-54.869678-8.467859 8.933463-2.959402 0.029676-7.436366 15.676028-20.379143-5.050016-16.934694-10.257621-37.195134-15.676028-11.851932 14.929014-27.815509 21.166065-52.082192 23.514553-7.021927-14.121626-10.295484-12.344143-14.873756-31.353079-12.402471-2.611477-24.799826-5.219885-37.199227-7.836479 0 5.225001 0 10.450003 0 15.675004-13.836123-4.489244-19.157315-3.230578-7.440459-15.675004-17.355273-2.613524-34.719756-5.225001-52.072983-7.837502-2.482541-5.225001-4.962012-10.450003-7.440459-15.675004-4.957919-2.612501-9.91993-5.225001-14.881942-7.841595-18.631336-26.723641-10.673084-41.002856-52.072983-47.022966-7.737218-30.685883-20.921495-27.217898-22.318308-70.540589 4.963035 2.612501 9.924024 5.225001 14.877849 7.837502 0-15.670911 0-31.356149 0-47.02706-2.478448 0-4.956895 0-7.440459 0 2.482541-5.225001 4.962012-10.450003 7.440459-15.676028-2.478448 0-4.956895 0-7.440459 0-16.900925-21.790282-20.23588-4.577249-22.314215-47.021943-4.957919 0-9.918907 0-14.876826 0 0-5.228071 0-10.454096 0-15.676028 4.957919 2.608407 9.918907 5.221932 14.876826 7.834432 0-7.834432 0-15.675004 0-23.512507-12.787234-8.829086-10.082636-4.957919-14.876826-23.51353 16.457834-9.342786 22.226211-18.258852 44.6315-23.51353 0 5.226025 0 10.450003 0 15.676028 24.797779-5.226025 49.602721-10.450003 74.395384-15.676028 7.971555-32.137954 18.525935-19.651572 7.440459-54.864562 7.437389 0 14.877849 0 22.318308 0 0-2.613524 0-5.229095 0-7.834432 4.957919 2.604314 9.91993 5.220908 14.877849 7.834432 0-5.229095 0-10.451026 0-15.676028 4.962012-2.612501 9.918907-5.223978 14.876826-7.837502 0-2.612501 0-5.226025 0-7.837502 5.669116-9.342786-0.597611-0.685615 7.440459-7.837502 9.346879 14.965853 7.541767 13.001105 29.759791 15.676028 0-7.834432 0-15.676028 0-23.509437 2.479471 0 4.957919 0 7.440459 0 8.670473-10.673084 13.573133-11.979846 29.755698-15.680121 9.304923 36.82265 31.865755 31.213909 37.199227 78.379115-8.471952 8.92937-2.967588 0.028653-7.440459 15.676028 37.868469 6.482645 59.639309 23.796986 66.950831 62.702064 22.317285 2.612501 44.64071 5.220908 66.954925 7.837502 0 2.612501 0 5.226025 0 7.837502 4.960988 0 9.91993 0 14.880919 0 0 2.613524 0 5.226025 0 7.841595 12.398378 2.608407 24.795732 5.221932 37.195134 7.834432 0 2.612501 0 5.225001 0 7.841595 7.440459-2.617617 14.881942-5.229095 22.319331-7.841595 0-2.613524 0-5.226025 0-7.834432 17.355273 0 34.720779 0 52.077076 0 4.957919-7.837502 9.918907-15.680121 14.876826-23.5166 4.957919 0 9.920954 0 14.881942 0 2.261507-3.210112-11.979846-17.640776-7.440459-31.352055 2.480494 0 4.958942 0 7.440459 0 0-2.612501 0-5.225001 0-7.837502 30.829146 11.599176 28.92375-0.418532 59.514465-7.841595 0-5.221932 0-10.446933 0-15.670911 14.875802-2.609431 29.753651-5.225001 44.63457-7.837502-2.479471-7.838525-4.962012-15.677051-7.440459-23.51353-28.470425 2.273786-34.151821 10.257621-44.635593 0-2.479471 0-4.956895 0-7.440459 0 2.484587-13.063527 4.963035-26.126031 7.440459-39.189557 9.91993 0 19.839861 0 29.759791 0 2.479471-7.833409 4.962012-15.675004 7.437389-23.512507 2.482541 0 4.960988 0 7.440459 0 0-5.226025 0-10.450003 0-15.676028 2.479471 0 4.963035 0 7.440459 0 5.108345-15.061021-3.882424-23.922852-7.440459-31.351032 2.479471 0 4.963035 0 7.440459 0 12.988826-16.060791 30.135344-16.160051 59.510372-15.676028C821.306066 161.431669 838.8967 175.166485 845.742619 207.166293zM823.425334 724.465996c4.963035 2.612501 9.918907 5.225001 14.876826 7.837502-4.957919 23.509437-9.91379 47.02706-14.876826 70.540589-2.479471 0-4.958942 0-7.440459 0-10.279111-20.47431-13.154601-13.268188-14.872732-47.032176C810.178635 748.06446 817.692772 735.51361 823.425334 724.465996z" p-id="5556" fill="#ffffff"></path></svg>