<?xml version="1.0" standalone="no"?><!DOCTYPE svg PUBLIC "-//W3C//DTD SVG 1.1//EN" "http://www.w3.org/Graphics/SVG/1.1/DTD/svg11.dtd"><svg t="1482914713173" class="icon" style="" viewBox="0 0 1024 1024" version="1.1" xmlns="http://www.w3.org/2000/svg" p-id="10741" xmlns:xlink="http://www.w3.org/1999/xlink" width="40" height="40"><defs><style type="text/css"></style></defs><path d="M888.908625 1024 135.046615 1024C87.849115 1024 49.424218 985.575103 49.424218 938.355224L49.424218 85.644776C49.424218 38.424897 87.849115 0 135.046615 0L710.054941 0l264.520838 269.287584L974.57578 938.355224C974.57578 985.575103 936.150883 1024 888.908625 1024zM135.046615 44.400114c-22.737155 0-41.222283 18.485128-41.222283 41.244662L93.824332 938.355224c0 22.759534 18.485128 41.244662 41.222283 41.244662l753.86201 0c22.759534 0 41.267041-18.485128 41.267041-41.244662L930.175666 287.437026 691.435539 44.400114 135.046615 44.400114z" p-id="10742"></path><path d="M221.4299 215.689665l251.630483 0 0 44.400114-251.630483 0 0-44.400114Z" p-id="10743"></path><path d="M221.4299 329.532093l251.630483 0 0 44.400114-251.630483 0 0-44.400114Z" p-id="10744"></path><path d="M221.4299 443.374522l251.630483 0 0 44.400114-251.630483 0 0-44.400114Z" p-id="10745"></path><path d="M221.4299 617.103394l578.141399 0 0 44.400114-578.141399 0 0-44.400114Z" p-id="10746"></path><path d="M221.4299 763.910221l578.141399 0 0 44.400114-578.141399 0 0-44.400114Z" p-id="10747"></path><path d="M950.831566 299.029394l-180.688769 0c-47.1975 0-85.622397-38.424897-85.622397-85.644776L684.5204 28.287169l44.400114 0 0 185.09745c0 22.759534 18.485128 41.244662 41.222283 41.244662l180.688769 0L950.831566 299.029394z" p-id="10748"></path></svg>