<?xml version="1.0" standalone="no"?><!DOCTYPE svg PUBLIC "-//W3C//DTD SVG 1.1//EN" "http://www.w3.org/Graphics/SVG/1.1/DTD/svg11.dtd"><svg t="1483862139369" class="icon" style="" viewBox="0 0 1024 1024" version="1.1" xmlns="http://www.w3.org/2000/svg" p-id="1016" xmlns:xlink="http://www.w3.org/1999/xlink" width="32" height="32"><defs><style type="text/css"></style></defs><path d="M386.354 185.45c-81.245 30.448-148.485 89.186-190.021 164.134l133.435 0c14.847-75.917 37.482-129.613 56.586-164.134zM501.762 349.584l0-187.262c-28.478 0.914-55.975 5.461-82.43 12.564-20.171 33.739-46.292 90.41-62.768 174.698l145.198 0zM830.091 349.585c-40.869-73.739-106.065-132.156-185.497-163.03 18.979 34.541 41.288 87.922 55.985 163.03l129.512 0zM611.385 175.477c-26.513-7.429-54.215-11.946-82.78-13.199l0 187.307 145.213 0c-16.379-83.817-42.308-140.296-62.433-174.108zM643.855 861.76c79.776-30.807 145.279-89.256 186.041-163.301l-129.475 0c-14.802 75.882-37.458 129.136-56.566 163.301zM528.605 698.459l0 186.775c28.205-1.25 55.708-5.172 81.917-12.446 20.161-33.196 46.224-89.936 62.753-174.329l-144.67 0zM196.715 698.459c41.587 75.143 108.857 134.089 190.396 164.433-19.227-34.12-42.177-87.759-57.135-164.433l-133.261 0zM420.217 873.41c26.183 6.958 53.387 11.408 81.545 12.313l0-187.264-144.655 0c16.63 84.902 42.904 141.834 63.11 174.951zM232.48 635.092l0-233.709-29.651 0 0 183.492-122.75-183.492-31.724 0 0 233.709 29.651 0 0-183.651 122.751 183.651zM454.068 428.963l0-27.58-168.981 0 0 233.709 174.401 0 0-27.579-143.474 0 0-79.551 129.286 0 0-27.42-129.286 0 0-71.579zM543.023 635.092l31.563 0 49.58-178.071c2.123-7.545 4.408-16.684 6.854-27.42 0.742 3.402 3.189 12.542 7.334 27.42l49.26 178.071 29.811 0 64.084-233.708-31.086 0-36.664 150.172c-4.783 19.131-8.664 36.084-11.639 50.855-3.721-25.826-9.779-53.405-18.174-82.739l-33.477-118.289-37.303 0-44.477 157.825c-1.064 3.826-4.572 18.229-10.521 43.203-2.766-15.835-6.059-31.777-9.885-47.826l-35.549-153.202-31.724 0 62.013 233.709zM976.156 535.854c-6.484-9.617-16.527-17.562-30.131-23.833-9.354-4.25-26.598-9.219-51.73-14.906-25.135-5.684-40.678-11.239-46.629-16.659-6.057-5.42-9.086-12.328-9.086-20.725 0-9.669 4.275-17.935 12.832-24.79 8.555-6.855 22.184-10.282 40.891-10.282 17.959 0 31.537 3.773 40.73 11.318 9.191 7.548 14.586 18.707 16.182 33.478l29.65-2.231c-0.533-13.71-4.359-25.985-11.479-36.826-7.121-10.84-17.295-19.05-30.527-24.63-13.232-5.58-28.51-8.369-45.832-8.369-15.73 0-30.025 2.658-42.883 7.971-12.861 5.316-22.637 13.1-29.332 23.355-6.695 10.258-10.043 21.283-10.043 33.08 0 10.736 2.734 20.433 8.209 29.094 5.473 8.664 13.789 15.917 24.949 21.761 8.607 4.57 23.645 9.433 45.115 14.587 21.465 5.156 35.334 8.954 41.607 11.398 9.775 3.721 16.791 8.316 21.043 13.789 4.248 5.476 6.375 11.877 6.375 19.21 0 7.229-2.207 13.897-6.615 20.008-4.412 6.112-11.135 10.92-20.166 14.427-9.035 3.508-19.449 5.261-31.246 5.261-13.285 0-25.242-2.312-35.867-6.935-10.629-4.623-18.469-10.681-23.514-18.174-5.051-7.492-8.266-17.082-9.646-28.774l-29.172 2.55c0.424 15.624 4.703 29.628 12.832 42.008 8.131 12.382 19.342 21.655 33.637 27.818 14.293 6.162 32.016 9.246 53.166 9.246 16.684 0 31.695-3.057 45.035-9.166 13.336-6.11 23.566-14.667 30.688-25.667 7.119-11 10.68-22.717 10.68-35.152 0-12.541-3.243-23.62-9.723-33.24z" p-id="1017" class="selected" fill="#ff5b57"></path></svg>