<?xml version="1.0" encoding="utf-8"?>
<!-- Generator: Adobe Illustrator 16.0.0, SVG Export Plug-In . SVG Version: 6.00 Build 0)  -->
<!DOCTYPE svg PUBLIC "-//W3C//DTD SVG 1.1//EN" "http://www.w3.org/Graphics/SVG/1.1/DTD/svg11.dtd">
<svg version="1.1" id="Layer_11" xmlns="http://www.w3.org/2000/svg" xmlns:xlink="http://www.w3.org/1999/xlink" x="0px" y="0px"
	 width="100px" height="100px" viewBox="0 0 100 100" enable-background="new 0 0 100 100" xml:space="preserve">
<g>
	<path d="M50.557,39.671c1.618,0,3.159,0.338,4.558,0.946c0.106-2.286,0.893-4.4,2.158-6.15c-0.889-0.186-1.807-0.285-2.748-0.285
		h-8.906c-0.938,0-1.856,0.098-2.739,0.282c1.347,1.869,2.152,4.15,2.165,6.62C46.682,40.184,48.56,39.671,50.557,39.671z"/>
	<circle cx="50.07" cy="22.97" r="10.496"/>
	<path d="M66.555,51.376c5.342,0,9.67-4.329,9.67-9.67c0-5.342-4.328-9.67-9.67-9.67c-5.292,0-9.583,4.251-9.663,9.524
		c3.049,1.912,5.187,5.146,5.577,8.901C63.711,51.042,65.092,51.376,66.555,51.376z"/>
	<path d="M33.587,32.035c-5.343,0-9.671,4.329-9.671,9.67c0,5.341,4.328,9.67,9.671,9.67c1.892,0,3.651-0.553,5.143-1.493
		c0.475-3.091,2.132-5.794,4.499-7.634c0.01-0.181,0.027-0.36,0.027-0.543C43.256,36.364,38.926,32.035,33.587,32.035z"/>
	<path d="M72.836,31.829c3.049,1.912,5.187,5.146,5.576,8.901c1.242,0.581,2.623,0.916,4.086,0.916c5.343,0,9.671-4.329,9.671-9.67
		c0-5.341-4.328-9.67-9.671-9.67C77.207,22.305,72.916,26.557,72.836,31.829z"/>
	<circle cx="50.557" cy="51.689" r="9.671"/>
	<path d="M70.658,52.035h-8.143c-0.089,3.258-1.479,6.192-3.678,8.301c6.068,1.805,10.508,7.433,10.508,14.081v3.092
		c8.04-0.296,12.674-2.573,12.979-2.728l0.646-0.328h0.068V64.417C83.039,57.59,77.485,52.035,70.658,52.035z"/>
	<path d="M86.601,42.305h-8.142c-0.088,3.258-1.479,6.192-3.677,8.301c6.068,1.805,10.508,7.433,10.508,14.081v3.092
		c8.039-0.296,12.673-2.573,12.979-2.728l0.646-0.328h0.069V54.687C98.983,47.86,93.429,42.305,86.601,42.305z"/>
	<path d="M42.272,60.336c-2.189-2.099-3.575-5.017-3.677-8.255c-0.301-0.022-0.6-0.046-0.908-0.046h-8.203
		c-6.828,0-12.383,5.555-12.383,12.382v10.037l0.025,0.156l0.691,0.217c5.227,1.633,9.893,2.384,13.944,2.621v-3.03
		C31.763,67.77,36.202,62.142,42.272,60.336z"/>
	<path d="M54.658,62.019h-8.205c-6.828,0-12.383,5.556-12.383,12.382v10.037l0.026,0.157l0.69,0.216
		c6.516,2.035,12.177,2.715,16.836,2.715c9.1,0,14.375-2.595,14.701-2.76l0.646-0.328h0.068V74.401
		C67.039,67.574,61.485,62.019,54.658,62.019z"/>
	<path d="M17.502,41.954c1.463,0,2.844-0.335,4.086-0.916c0.39-3.755,2.527-6.99,5.576-8.902c-0.08-5.271-4.371-9.523-9.662-9.523
		c-5.343,0-9.671,4.329-9.671,9.671C7.831,37.625,12.159,41.954,17.502,41.954z"/>
	<path d="M25.218,50.915c-2.198-2.109-3.589-5.044-3.677-8.302h-8.143c-6.828,0-12.382,5.555-12.382,12.382v10.037h0.069
		l0.646,0.328c0.306,0.154,4.939,2.432,12.979,2.728v-3.092C14.71,58.348,19.149,52.72,25.218,50.915z"/>
	<path d="M28.812,31.079c1.16-0.47,2.93-1.047,4.62-1.047c1.967,0,3.891,0.506,5.607,1.469c0.382-0.375,0.732-0.783,1.05-1.22
		c-1.63-2.141-2.52-4.765-2.52-7.464c0-1.818,0.406-3.622,1.18-5.261c-1.762-1.592-4.01-2.461-6.399-2.461
		c-4.348,0-8.133,2.943-9.241,7.088C26.357,24.073,28.473,27.377,28.812,31.079z"/>
	<path d="M60.133,29.734c0.336,0.534,0.729,1.037,1.175,1.505c1.588-0.792,3.334-1.208,5.092-1.208c1.729,0,3.386,0.442,4.472,0.813
		c0.34-4.013,2.766-7.555,6.4-9.35c-1.332-3.805-4.938-6.402-9.021-6.402c-2.64,0-5.14,1.084-6.946,2.992
		c0.634,1.512,0.955,3.101,0.955,4.73C62.26,25.308,61.526,27.686,60.133,29.734z"/>
</g>
</svg>
