<?xml version="1.0" standalone="no"?><!DOCTYPE svg PUBLIC "-//W3C//DTD SVG 1.1//EN" "http://www.w3.org/Graphics/SVG/1.1/DTD/svg11.dtd"><svg t="1483927302162" class="icon" style="" viewBox="0 0 1000 1000" version="1.1" xmlns="http://www.w3.org/2000/svg" p-id="6217" xmlns:xlink="http://www.w3.org/1999/xlink" width="45" height="45"><defs><style type="text/css"></style></defs><path d="M843.75 968.75h-687.5c-34.5 0-62.5-28-62.5-62.5v-687.5c0-34.5313 28-62.5 62.5-62.5h62.5v31.25c0 51.7813 41.9688 93.75 93.75 93.75 51.75 0 93.75-41.9688 93.75-93.75v-31.25h187.5v31.25c0 51.7813 42 93.75 93.75 93.75s93.75-41.9688 93.75-93.75v-31.25h62.5c34.5 0 62.5 27.9688 62.5 62.5v687.5c0 34.5-28 62.5-62.5 62.5zM843.75 375h-687.5v531.25h687.5v-531.25zM312.5 531.25h-93.75v-93.75h93.75v93.75zM312.5 687.5h-93.75v-93.75h93.75v93.75zM312.5 843.75h-93.75v-93.75h93.75v93.75zM468.75 531.25h-93.75v-93.75h93.75v93.75zM468.75 687.5h-93.75v-93.75h93.75v93.75zM468.75 843.75h-93.75v-93.75h93.75v93.75zM625 531.25h-93.75v-93.75h93.75v93.75zM625 687.5h-93.75v-93.75h93.75v93.75zM625 843.75h-93.75v-93.75h93.75v93.75zM781.25 531.25h-93.75v-93.75h93.75v93.75zM781.25 687.5h-93.75v-93.75h93.75v93.75zM781.25 843.75h-93.75v-93.75h93.75v93.75zM686.5313 250c-34 0-61.5313-27.5625-61.5313-61.5313v-64.4375c0-34 27.5313-61.5313 61.5313-61.5313s61.5313 27.5313 61.5313 61.5313v64.4375c0 33.9688-27.5313 61.5313-61.5313 61.5313zM311.5313 250c-34 0-61.5313-27.5625-61.5313-61.5313v-64.4375c0-34 27.5313-61.5313 61.5313-61.5313s61.5313 27.5313 61.5313 61.5313v64.4375c0 33.9688-27.5625 61.5313-61.5313 61.5313z" p-id="6218" fill="#1296db"></path></svg>