<?xml version="1.0" standalone="no"?><!DOCTYPE svg PUBLIC "-//W3C//DTD SVG 1.1//EN" "http://www.w3.org/Graphics/SVG/1.1/DTD/svg11.dtd"><svg t="1484011649390" class="icon" style="" viewBox="0 0 1024 1024" version="1.1" xmlns="http://www.w3.org/2000/svg" p-id="6304" xmlns:xlink="http://www.w3.org/1999/xlink" width="17" height="17"><defs><style type="text/css"></style></defs><path d="M463.92661 206.080565 143.526369 206.080565 463.92661 206.080565M540.49038 282.640242 540.49038 129.519866 66.964646 129.519866 66.964646 282.640242 540.49038 282.640242 540.49038 282.640242 540.49038 282.640242zM669.189553 512.333598 143.526369 512.333598 669.189553 512.333598M745.7523 588.886111 745.7523 435.770851 66.964646 435.770851l0 153.114237L745.7523 588.885088 745.7523 588.886111 745.7523 588.886111zM881.672946 818.577421 143.526369 818.577421 881.672946 818.577421M958.234669 895.13812 958.234669 742.017744l-891.270023-0.00307 0 153.123446L958.234669 895.13812 958.234669 895.13812 958.234669 895.13812zM958.234669 895.13812" p-id="6305" fill="#ffffff"></path></svg>