<?xml version="1.0" standalone="no"?><!DOCTYPE svg PUBLIC "-//W3C//DTD SVG 1.1//EN" "http://www.w3.org/Graphics/SVG/1.1/DTD/svg11.dtd"><svg t="1482982166913" class="icon" style="" viewBox="0 0 1024 1024" version="1.1" xmlns="http://www.w3.org/2000/svg" p-id="16540" xmlns:xlink="http://www.w3.org/1999/xlink" width="16" height="16"><defs><style type="text/css"></style></defs><path d="M1005.867526 395.025868c-2.056845-6.010901-5.378497-11.639085-9.962909-16.458857-3.585665-3.791349-7.847735-6.995321-12.697183-9.390881-3.350304-1.675152-6.847965-2.894933-10.43363-3.673669l-277.106202-66.719564L554.145377 28.921703c-2.116197-4.188392-4.9088-8.067746-8.28878-11.463076-3.997034-3.997034-8.671497-7.157004-13.725606-9.390881-5.878894-2.601244-12.081153-3.850701-18.193361-3.850701-0.029676 0-0.059352 0-0.11768 0-6.142907 0.01535-12.344143 1.279133-18.281365 3.90903-4.9088 2.189875-9.464559 5.260817-13.373589 9.141194-3.497661 3.438309-6.348592 7.377014-8.494465 11.639085L332.236312 298.694893 50.604026 365.502461c-3.90903 0.852414-7.759731 2.233877-11.403724 4.14439-4.879124 2.571568-9.169847 5.981225-12.756535 9.993608-4.350075 4.9088-7.494695 10.56666-9.346879 16.562211-1.880837 6.025227-2.527566 12.506848-1.675152 19.089777 0.64673 5.216815 2.233877 10.360975 4.731768 15.152095 1.940189 3.731998 4.350075 7.127328 7.17133 10.110265l193.986109 214.236316-47.644113 311.89145c-0.822738 4.952802-0.793062 10.051937 0.088004 15.092743 0.970094 5.555529 2.968611 10.80202 5.849218 15.533788 3.350304 5.54018 7.700379 10.126638 12.726859 13.637602 4.879124 3.409656 10.522658 5.907547 16.665565 7.185656 3.02694 0.632403 6.142907 0.970094 9.258874 0.970094 2.49789 0 4.996804-0.205685 7.494695-0.63138 5.02648-0.852414 9.846252-2.541893 14.224979-4.967128L511.674077 867.265306l271.52202 146.150638c4.202719 2.351558 8.816806 4.041036 13.696953 4.937452 5.436826 1.014096 11.022031 0.970094 16.400528-0.01535 6.40692-1.174756 12.285814-3.687996 17.399275-7.185656 4.967128-3.423983 9.317203-7.876388 12.668531-13.270235 2.938935-4.673439 5.025457-9.905604 6.083555-15.445784 0-0.01535 0-0.01535 0-0.01535l0-0.01535c0.911766-4.804423 1.028423-9.698896 0.411369-14.44499l-36.534078-300.855092 184.345542-228.40399c2.350534-2.762927 4.349051-5.833869 5.995551-9.169847 2.38021-4.849448 3.820002-9.993608 4.378727-15.196097C1008.749156 407.664723 1007.956094 401.095098 1005.867526 395.025868z" p-id="16541" fill="#d81e06"></path></svg>