<?xml version="1.0" encoding="utf-8"?>
<!-- Generator: Adobe Illustrator 16.0.0, SVG Export Plug-In . SVG Version: 6.00 Build 0)  -->
<!DOCTYPE svg PUBLIC "-//W3C//DTD SVG 1.1//EN" "http://www.w3.org/Graphics/SVG/1.1/DTD/svg11.dtd">
<svg version="1.1" xmlns="http://www.w3.org/2000/svg" xmlns:xlink="http://www.w3.org/1999/xlink" x="0px" y="0px" width="50px"
	 height="50px" viewBox="0 0 50 50" enable-background="new 0 0 50 50" xml:space="preserve">
<g id="text">
</g>
<g id="_x31_">
</g>
<g id="_x32_">
</g>
<g id="_x33__1_">
</g>
<g id="_x34_">
</g>
<g id="_x35_">
</g>
<g id="_x36_">
</g>
<g id="_x37_">
</g>
<g id="_x38_">
</g>
<g id="_x39_">
</g>
<g id="_x31_0">
</g>
<g id="_x31_1">
</g>
<g id="_x31_2">
</g>
<g id="_x31_3">
</g>
<g id="_x31_4">
</g>
<g id="_x31_5">
</g>
<g id="_x31_6">
</g>
<g id="_x31_7">
</g>
<g id="_x31_8">
</g>
<g id="_x31_9">
</g>
<g id="_x32_0">
</g>
<g id="_x32_1">
</g>
<g id="_x32_2">
</g>
<g id="_x32_3">
</g>
<g id="_x32_4">
</g>
<g id="_x32_5">
</g>
<g id="_x32_6">
</g>
<g id="_x32_7">
</g>
<g id="_x32_8">
</g>
<g id="_x32_9">
</g>
<g id="_x33_0">
</g>
<g id="_x33_1">
</g>
<g id="_x33_2">
</g>
<g id="_x33_3">
</g>
<g id="_x33_4">
</g>
<g id="_x33_5">
</g>
<g id="_x33_6">
</g>
<g id="_x33_7">
</g>
<g id="_x33_8">
</g>
<g id="_x33_9">
</g>
<g id="_x34_0">
</g>
<g id="_x34_1">
</g>
<g id="_x34_2">
</g>
<g id="_x34_3">
</g>
<g id="_x34_4">
</g>
<g id="_x34_5">
</g>
<g id="_x34_6">
</g>
<g id="_x34_7">
</g>
<g id="_x34_8">
</g>
<g id="_x34_9">
</g>
<g id="_x35_0">
</g>
<g id="_x35_1">
</g>
<g id="_x35_2">
</g>
<g id="_x35_3">
</g>
<g id="_x35_4">
</g>
<g id="_x35_5">
</g>
<g id="_x35_6">
</g>
<g id="_x35_7">
</g>
<g id="_x35_8">
</g>
<g id="_x35_9">
</g>
<g id="_x36_0">
</g>
<g id="_x36_1">
</g>
<g id="_x36_2">
</g>
<g id="_x36_3">
</g>
<g id="_x36_4">
</g>
<g id="_x36_5">
</g>
<g id="_x36_6">
</g>
<g id="_x36_7">
</g>
<g id="_x36_8">
</g>
<g id="_x36_9">
</g>
<g id="_x37_0">
</g>
<g id="_x37_1">
</g>
<g id="_x37_2">
</g>
<g id="_x37_3">
</g>
<g id="_x37_4">
</g>
<g id="_x37_5">
</g>
<g id="_x37_6">
</g>
<g id="_x37_7">
</g>
<g id="_x37_8">
</g>
<g id="_x37_9">
</g>
<g id="_x38_0">
</g>
<g id="_x38_1">
</g>
<g id="_x38_2">
</g>
<g id="_x38_3">
</g>
<g id="_x38_4">
</g>
<g id="_x38_5">
</g>
<g id="_x38_6">
</g>
<g id="_x38_7">
</g>
<g id="_x38_8">
</g>
<g id="_x38_9">
</g>
<g id="_x39_0">
</g>
<g id="_x39_1">
</g>
<g id="_x39_2">
</g>
<g id="_x39_3">
</g>
<g id="_x39_4">
</g>
<g id="_x39_5">
</g>
<g id="_x39_6">
</g>
<g id="_x39_7">
</g>
<g id="_x39_8">
</g>
<g id="_x39_9">
</g>
<g id="_x31_00">
</g>
<g id="_x31_01">
</g>
<g id="_x31_02">
</g>
<g id="_x31_03">
</g>
<g id="_x31_04">
</g>
<g id="_x31_05">
</g>
<g id="_x31_06">
</g>
<g id="_x31_07">
</g>
<g id="_x31_08">
</g>
<g id="_x31_09">
</g>
<g id="_x31_10">
</g>
<g id="_x31_11">
</g>
<g id="_x31_12">
</g>
<g id="_x31_13">
</g>
<g id="_x31_14">
</g>
<g id="_x31_15">
</g>
<g id="_x31_16">
</g>
<g id="_x31_17">
</g>
<g id="_x31_18">
</g>
<g id="_x31_19">
</g>
<g id="_x31_20">
</g>
<g id="_x31_21">
</g>
<g id="_x31_22">
</g>
<g id="_x31_23">
</g>
<g id="_x31_24">
</g>
<g id="_x31_25">
</g>
<g id="_x31_26">
</g>
<g id="_x31_27">
</g>
<g id="_x31_28">
</g>
<g id="_x31_29">
</g>
<g id="_x31_30">
	<g>
		<path d="M22.797,19.06c6.418,0,5.836,0,12.254,0c1.611,0,1.611-2.5,0-2.5c-6.418,0-5.836,0-12.254,0
			C21.186,16.56,21.186,19.06,22.797,19.06z"/>
		<path d="M35.051,23.477c-6.418,0-5.836,0-12.254,0c-1.611,0-1.611,2.5,0,2.5c6.418,0,5.836,0,12.254,0
			C36.662,25.977,36.662,23.477,35.051,23.477z"/>
		<path d="M35.051,29.96c-6.418,0-5.836,0-12.254,0c-1.611,0-1.611,2.5,0,2.5c6.418,0,5.836,0,12.254,0
			C36.662,32.46,36.662,29.96,35.051,29.96z"/>
		<path d="M35.051,36.877c-6.418,0-5.836,0-12.254,0c-1.611,0-1.611,2.5,0,2.5c6.418,0,5.836,0,12.254,0
			C36.662,39.377,36.662,36.877,35.051,36.877z"/>
		<path d="M17.346,15.1l-0.355,0.513c-0.434,0.624-0.881,1.264-1.256,1.938c-0.006-0.006-0.012-0.013-0.018-0.02l-0.23-0.266
			c-0.436-0.498-1.277-0.333-1.549,0.267c-0.158,0.348-0.1,0.743,0.152,1.032l0.244,0.283c0.314,0.365,0.641,0.744,1.01,1.084
			c0.182,0.166,0.416,0.258,0.656,0.258c0.412,0,0.779-0.269,0.914-0.669c0.318-0.952,0.975-1.881,1.609-2.78
			c0.146-0.209,0.293-0.414,0.432-0.617c0.195-0.286,0.219-0.631,0.064-0.924C18.709,14.61,17.742,14.521,17.346,15.1z"/>
		<path d="M16.746,21.911l-0.355,0.514c-0.436,0.623-0.881,1.264-1.258,1.938c-0.006-0.007-0.012-0.014-0.016-0.02l-0.232-0.267
			c-0.434-0.497-1.275-0.331-1.547,0.267c-0.158,0.348-0.1,0.744,0.152,1.033l0.244,0.282c0.314,0.366,0.639,0.745,1.01,1.084
			c0.182,0.167,0.414,0.259,0.654,0.259c0.414,0,0.781-0.27,0.916-0.67c0.318-0.951,0.973-1.881,1.607-2.779
			c0.148-0.209,0.293-0.415,0.432-0.617c0.195-0.287,0.221-0.632,0.066-0.924C18.109,21.422,17.141,21.332,16.746,21.911z"/>
		<path d="M16.746,28.883l-0.355,0.513c-0.436,0.624-0.881,1.264-1.258,1.938c-0.006-0.006-0.01-0.013-0.016-0.02l-0.232-0.266
			c-0.434-0.498-1.275-0.332-1.547,0.267c-0.158,0.348-0.1,0.743,0.152,1.032l0.244,0.283c0.314,0.365,0.639,0.744,1.01,1.084
			c0.182,0.166,0.414,0.258,0.654,0.258c0.414,0,0.781-0.269,0.916-0.669c0.318-0.952,0.973-1.881,1.607-2.78
			c0.148-0.209,0.293-0.414,0.432-0.617c0.195-0.286,0.221-0.631,0.066-0.924C18.109,28.394,17.141,28.304,16.746,28.883z"/>
		<path d="M16.746,35.999l-0.355,0.514c-0.436,0.623-0.881,1.264-1.258,1.938c-0.006-0.007-0.012-0.014-0.016-0.02l-0.232-0.267
			c-0.434-0.498-1.275-0.332-1.547,0.267c-0.158,0.348-0.1,0.744,0.152,1.033l0.244,0.282c0.314,0.366,0.639,0.745,1.01,1.084
			c0.182,0.167,0.414,0.259,0.654,0.259c0.414,0,0.781-0.27,0.916-0.67c0.318-0.951,0.973-1.881,1.607-2.779
			c0.148-0.209,0.293-0.415,0.432-0.617c0.195-0.287,0.221-0.632,0.066-0.924C18.109,35.511,17.141,35.42,16.746,35.999z"/>
		<path d="M35.902,2.472H7.65v45.057h34.698V8.723L35.902,2.472z M39.349,44.528H10.65V5.472h23.706v4.76h4.992V44.528z"/>
	</g>
</g>
<g id="_x31_31">
</g>
<g id="_x31_32">
</g>
<g id="_x31_33">
</g>
<g id="_x31_34">
</g>
<g id="_x31_35">
</g>
<g id="_x31_36">
</g>
<g id="_x31_37">
</g>
<g id="_x31_38">
</g>
<g id="_x31_39">
</g>
<g id="_x31_40">
</g>
<g id="_x31_41">
</g>
<g id="_x31_42">
</g>
<g id="_x31_43">
</g>
<g id="_x31_44">
</g>
<g id="_x31_45">
</g>
<g id="_x31_46">
</g>
<g id="_x31_47">
</g>
<g id="_x31_48">
</g>
<g id="_x31_49">
</g>
<g id="_x31_50">
</g>
<g id="_x31_51">
</g>
<g id="_x31_52">
</g>
<g id="_x31_53">
</g>
<g id="_x31_54">
</g>
<g id="_x31_55">
</g>
<g id="_x31_56">
</g>
<g id="_x31_57">
</g>
<g id="_x31_58">
</g>
<g id="_x31_59">
</g>
<g id="_x31_60">
</g>
<g id="_x31_61">
</g>
<g id="_x31_62">
</g>
<g id="_x31_63">
</g>
<g id="_x31_64">
</g>
<g id="_x31_65">
</g>
<g id="_x31_66">
</g>
<g id="_x31_67">
</g>
<g id="_x31_68">
</g>
<g id="_x31_69">
</g>
<g id="_x31_70">
</g>
<g id="_x31_71">
</g>
<g id="_x31_72">
</g>
<g id="_x31_73">
</g>
<g id="_x31_74">
</g>
<g id="_x31_75">
</g>
<g id="_x31_76">
</g>
<g id="_x31_77">
</g>
<g id="_x31_78">
</g>
<g id="_x31_79">
</g>
<g id="_x31_80">
</g>
<g id="_x31_81">
</g>
<g id="_x31_82">
</g>
<g id="_x31_83">
</g>
<g id="_x31_84">
</g>
<g id="_x31_85">
</g>
<g id="_x31_86">
</g>
<g id="_x31_87">
</g>
<g id="_x31_88">
</g>
<g id="_x31_89">
</g>
<g id="_x31_90">
</g>
</svg>
