<?xml version="1.0" standalone="no"?><!DOCTYPE svg PUBLIC "-//W3C//DTD SVG 1.1//EN" "http://www.w3.org/Graphics/SVG/1.1/DTD/svg11.dtd"><svg t="1482905808612" class="icon" style="" viewBox="0 0 1024 1024" version="1.1" xmlns="http://www.w3.org/2000/svg" p-id="3389" xmlns:xlink="http://www.w3.org/1999/xlink" width="32" height="32"><defs><style type="text/css"></style></defs><path d="M769.159 926.344H254.99c-86.851 0-157.911-71.06-157.911-157.911V254.264c0-86.851 71.06-157.911 157.911-157.911h514.169c86.851 0 157.911 71.06 157.911 157.911v514.169c0 86.851-71.06 157.911-157.911 157.911zM361.048 367.86h0.003v210.273c0 4.059-0.884 10.58-2.645 19.572-1.765 8.993-3.794 16.226-6.084 21.688l-29.359 70.091c-5.117 11.989-9.435 18.954-12.96 20.896-3.531 1.939-8.027 2.91-13.491 2.91h-29.094v47.08h49.725c16.043 0 26.888-2.294 32.533-6.878 5.641-4.586 9.477-8.861 11.506-12.828 2.025-3.967 4.893-10.095 8.596-18.382l21.687-48.667 19.308 49.989c4.761 12.518 9.787 21.069 15.075 25.657 5.291 4.584 10.712 7.405 16.268 8.464 5.554 1.059 14.059 1.588 25.523 1.588h43.906l0.265-49.99h-30.68c-5.996 0-10.539-0.752-13.621-2.248-3.088-1.501-5.687-4.628-7.802-9.39l-31.211-69.034c-3.351-7.049-5.645-14.282-6.876-21.687-1.237-7.406-1.852-16.135-1.852-26.184V367.86h-58.72z m-91.779-102.624v377.168h59.51V321.839h119.288v320.567h57.66v-377.17H269.269z m299.935-2.38v208.95l-34.119 0.529V757.46h162.927c10.223 0 19.791-1.719 28.697-5.158 8.903-3.439 15.382-7.894 19.44-13.358 4.054-5.467 6.832-12.034 8.333-19.704 1.496-7.67 2.248-14.857 2.248-21.556V472.336H638.502V351.197h117.169v-55.28H638.502v-33.59l-69.298 0.529z m120.081 267.669v144.148c0 15.693-6.174 23.541-18.516 23.541h-71.412V530.525h89.928z" fill="#3986F6" p-id="3390"></path></svg>