<?xml version="1.0" standalone="no"?><!DOCTYPE svg PUBLIC "-//W3C//DTD SVG 1.1//EN" "http://www.w3.org/Graphics/SVG/1.1/DTD/svg11.dtd"><svg t="1482913612718" class="icon" style="" viewBox="0 0 1024 1024" version="1.1" xmlns="http://www.w3.org/2000/svg" p-id="6327" xmlns:xlink="http://www.w3.org/1999/xlink" width="48" height="48"><defs><style type="text/css"></style></defs><path d="M77.352 484.042a428.765 428.765 0 1 0 857.53 0 428.765 428.765 0 1 0-857.53 0z" fill="" p-id="6328"></path><path d="M369.15 355.027h52.699v191.09c0 9.02 0.552 16.854 1.662 23.5 1.105 6.647 3.164 13.137 6.171 19.465l28.011 61.956c1.9 4.273 4.233 7.08 7.003 8.427 2.767 1.342 6.843 2.018 12.225 2.018h27.536l-0.237 44.864h-39.405c-10.289 0-17.922-0.474-22.906-1.425-4.986-0.95-9.852-3.482-14.6-7.596-4.747-4.117-9.258-11.79-13.53-23.026l-17.329-44.864-19.464 43.677c-3.324 7.438-5.897 12.938-7.715 16.498-1.821 3.56-5.264 7.397-10.326 11.513-5.066 4.114-14.799 6.172-29.198 6.172H285.12v-42.253h26.111c4.904 0 8.939-0.872 12.107-2.612 3.164-1.743 7.04-7.993 11.632-18.753l26.35-62.906c2.054-4.902 3.875-11.393 5.459-19.464 1.58-8.07 2.374-13.923 2.374-17.566V355.027z m-82.37-92.103h212.216v338.502h-51.749V313.723H340.19v287.702h-53.41v-338.5z m269.186-2.136l62.194-0.475v30.146h105.158v49.612H618.16v108.72h106.107v202.247c0 6.012-0.675 12.462-2.017 19.346-1.347 6.884-3.84 12.777-7.479 17.684-3.643 4.904-9.457 8.902-17.447 11.988-7.993 3.086-16.58 4.628-25.756 4.628H525.345V448.791l30.621-0.474v-187.53z m107.77 240.227h-80.708v150.497h64.091c11.076 0 16.617-7.043 16.617-21.127v-129.37z" fill="#FFFFFF" p-id="6329"></path></svg>