<?xml version="1.0" encoding="utf-8"?>
<!-- Generator: Adobe Illustrator 16.0.4, SVG Export Plug-In . SVG Version: 6.00 Build 0)  -->
<!DOCTYPE svg PUBLIC "-//W3C//DTD SVG 1.1//EN" "http://www.w3.org/Graphics/SVG/1.1/DTD/svg11.dtd">
<svg version="1.1" id="Capa_1" xmlns="http://www.w3.org/2000/svg" xmlns:xlink="http://www.w3.org/1999/xlink" x="0px" y="0px"
	 width="23.421px" height="20.801px" viewBox="0 0 23.421 20.801" enable-background="new 0 0 23.421 20.801" xml:space="preserve">
<g>
	<rect x="3.373" y="10.479" width="2.071" height="2.072"/>
	<rect x="3.373" y="13.756" width="2.071" height="2.07"/>
	<rect x="6.844" y="7.201" width="2.071" height="2.071"/>
	<rect x="6.844" y="10.479" width="2.071" height="2.072"/>
	<rect x="6.844" y="13.756" width="2.071" height="2.07"/>
	<path d="M19.278,7.499V1.457C19.278,0.655,18.623,0,17.821,0H1.457C0.655,0,0,0.655,0,1.457V17.82c0,0.802,0.655,1.457,1.457,1.457
		h10.681c1.188,0.951,2.693,1.522,4.333,1.522c3.838,0,6.951-3.11,6.951-6.948C23.421,11.014,21.716,8.578,19.278,7.499z
		 M6.315,1.431h6.642v1.717H6.315V1.431z M1.79,4.788h15.696v2.198c-0.332-0.049-0.67-0.083-1.016-0.083
		c-1.529,0-2.938,0.5-4.086,1.337v-1.04h-2.07v2.071h0.941c-1.075,1.223-1.731,2.823-1.731,4.58c0,1.254,0.337,2.427,0.917,3.442
		H1.79V4.788z M15.833,8.191c0-0.353,0.287-0.636,0.637-0.636c0.354,0,0.637,0.283,0.638,0.636c0,0.352-0.284,0.637-0.638,0.637
		C16.121,8.828,15.833,8.543,15.833,8.191z M11.448,13.852c0,0.353-0.284,0.639-0.638,0.639c-0.353,0-0.637-0.286-0.637-0.639
		s0.284-0.636,0.637-0.636S11.447,13.499,11.448,13.852z M16.47,20.15c-0.35,0-0.637-0.284-0.637-0.635
		c0-0.354,0.287-0.64,0.637-0.64c0.354,0,0.637,0.285,0.638,0.64C17.108,19.866,16.824,20.15,16.47,20.15z M20.328,10.979
		l-2.667,2.663c0.018,0.082,0.05,0.158,0.05,0.245c0,0.691-0.561,1.252-1.252,1.252c-0.667,0-1.201-0.527-1.237-1.187l-2.833-2.201
		c-0.245-0.192-0.303-0.53-0.125-0.756c0.177-0.229,0.521-0.257,0.766-0.065l2.593,2.018c0.224-0.21,0.52-0.344,0.849-0.344
		c0.218,0,0.412,0.07,0.59,0.168l2.527-2.53c0.236-0.235,0.593-0.258,0.793-0.055C20.583,10.389,20.56,10.743,20.328,10.979z
		 M22.13,14.49c-0.352,0-0.637-0.286-0.637-0.639s0.285-0.636,0.637-0.636c0.353,0,0.639,0.283,0.639,0.636
		S22.484,14.49,22.13,14.49z"/>
</g>
</svg>
