<?xml version="1.0" encoding="utf-8"?>
<!-- Generator: Adobe Illustrator 16.0.4, SVG Export Plug-In . SVG Version: 6.00 Build 0)  -->
<!DOCTYPE svg PUBLIC "-//W3C//DTD SVG 1.1//EN" "http://www.w3.org/Graphics/SVG/1.1/DTD/svg11.dtd">
<svg version="1.1" id="Capa_1" xmlns="http://www.w3.org/2000/svg" xmlns:xlink="http://www.w3.org/1999/xlink" x="0px" y="0px"
	 width="22.714px" height="22.188px" viewBox="0 0 22.714 22.188" enable-background="new 0 0 22.714 22.188" xml:space="preserve">
<g>
	<rect x="2.716" y="3.36" width="10.343" height="1.422"/>
	<path d="M16.031,5.795V0H0v17.841h7.156c1.399,2.588,4.136,4.346,7.282,4.346c4.569,0,8.276-3.704,8.276-8.273
		C22.714,9.888,19.838,6.538,16.031,5.795z M7.697,14.67c-0.42,0-0.759-0.339-0.759-0.757c0-0.419,0.339-0.759,0.759-0.759
		c0.418,0,0.757,0.34,0.757,0.759C8.454,14.331,8.115,14.67,7.697,14.67z M2.716,8.209V9.63H7.37
		c-0.62,1.021-1.032,2.181-1.16,3.428H2.716v1.422h3.478c0.055,0.813,0.228,1.594,0.501,2.326c-2.771,0-5.26,0-5.662,0
		c0-0.939,0-14.832,0-15.772c0.93,0,13.034,0,13.964,0c0,0.329,0,2.244,0,4.634c-0.186-0.013-0.371-0.028-0.56-0.028
		c-2.354,0-4.476,0.99-5.982,2.57H2.716z M15.199,7.17c0,0.419-0.341,0.759-0.761,0.759c-0.417,0-0.758-0.34-0.758-0.759
		s0.341-0.759,0.758-0.759C14.857,6.411,15.199,6.751,15.199,7.17z M14.438,21.413c-0.417,0-0.758-0.339-0.758-0.758
		c0-0.42,0.341-0.76,0.758-0.76c0.419,0,0.759,0.339,0.761,0.76C15.199,21.074,14.858,21.413,14.438,21.413z M19.029,10.489
		l-3.206,3.206c0.016,0.086,0.026,0.174,0.026,0.264c0,0.824-0.667,1.491-1.49,1.491c-0.821,0-1.485-0.662-1.49-1.482L9.578,11.41
		c-0.293-0.228-0.359-0.632-0.148-0.901c0.209-0.271,0.618-0.305,0.908-0.077l3.071,2.388c0.114-0.096,0.24-0.179,0.382-0.237
		c0.196-0.098,0.414-0.158,0.647-0.158c0.198,0,0.387,0.041,0.56,0.111c0,0.027,0,0.055,0,0.082
		c0.033,0.017,0.065,0.035,0.098,0.054l3.057-3.058c0.281-0.279,0.701-0.309,0.943-0.068C19.337,9.787,19.308,10.21,19.029,10.489z
		 M21.181,14.67c-0.422,0-0.758-0.339-0.758-0.757c0-0.419,0.336-0.759,0.758-0.759c0.418,0,0.758,0.34,0.759,0.759
		C21.94,14.331,21.599,14.67,21.181,14.67z"/>
</g>
</svg>
