<?xml version="1.0" standalone="no"?><!DOCTYPE svg PUBLIC "-//W3C//DTD SVG 1.1//EN" "http://www.w3.org/Graphics/SVG/1.1/DTD/svg11.dtd"><svg t="1483965853053" class="icon" style="" viewBox="0 0 1024 1024" version="1.1" xmlns="http://www.w3.org/2000/svg" p-id="1477" xmlns:xlink="http://www.w3.org/1999/xlink" width="17" height="17"><defs><style type="text/css"></style></defs><path d="M390.893246 455.538057c-18.409279 0-33.31885 14.909571-33.31885 33.317827 0 18.409279 14.909571 33.31885 33.31885 33.31885 18.408255 0 33.317827-14.909571 33.317827-33.31885C424.211073 470.447629 409.301502 455.538057 390.893246 455.538057zM657.497257 455.538057c-18.408255 0-33.31885 14.909571-33.31885 33.317827 0 18.409279 14.909571 33.31885 33.31885 33.31885s33.337269-14.909571 33.337269-33.31885C690.835549 470.447629 675.906535 455.538057 657.497257 455.538057zM524.205485 455.538057c-18.409279 0-33.31885 14.909571-33.31885 33.317827 0 18.409279 14.908548 33.31885 33.31885 33.31885 18.408255 0 33.31885-14.909571 33.31885-33.31885C557.523311 470.447629 542.61374 455.538057 524.205485 455.538057zM939.658591 251.120364c-18.750039-90.827635-76.733639-150.142555-167.562297-167.962409-133.995807-26.26213-385.348462-26.26213-519.326872 0-90.826612 17.819854-149.799748 76.924997-167.562297 167.962409-26.225291 134.320195-26.225291 386.262274 0 520.562003 17.762549 91.01797 76.735685 150.123113 167.562297 167.962409 133.977387 26.243711 385.330042 26.243711 519.326872 0 90.808192-17.839297 148.164504-77.287247 167.562297-167.962409C967.880353 639.778198 969.38359 395.081127 939.658591 251.120364zM524.205485 722.123648c-17.059538 0-33.679054-1.521656-49.824779-4.222161L357.574397 788.798187 357.574397 670.814052c-60.893882-42.750663-99.993388-108.323101-99.993388-181.958168 0-128.842437 119.391181-233.266741 266.624477-233.266741 147.233296 0 266.605034 104.424304 266.605034 233.266741C790.810518 617.679901 671.437757 722.123648 524.205485 722.123648z" p-id="1478" fill="#ffffff"></path></svg>