<?xml version="1.0" standalone="no"?><!DOCTYPE svg PUBLIC "-//W3C//DTD SVG 1.1//EN" "http://www.w3.org/Graphics/SVG/1.1/DTD/svg11.dtd"><svg t="1535031960333" class="icon" style="" viewBox="0 0 1024 1024" version="1.1" xmlns="http://www.w3.org/2000/svg" p-id="2339" xmlns:xlink="http://www.w3.org/1999/xlink" width="200" height="200"><defs><style type="text/css"></style></defs><path d="M512 0C229.216 0 0 229.216 0 512s229.216 512 512 512 512-229.216 512-512S794.784 0 512 0zM806.24 361.088c0.288 6.496 0.448 13.056 0.448 19.648 0 200.608-152.704 431.968-431.968 431.968-85.728 0-165.536-25.12-232.736-68.224 11.872 1.408 23.968 2.112 36.224 2.112 71.136 0 136.576-24.288 188.544-64.992-66.432-1.216-122.496-45.12-141.824-105.44 9.28 1.76 18.784 2.72 28.576 2.72 13.856 0 27.264-1.856 40-5.312-69.44-13.952-121.792-75.296-121.792-148.864 0-0.64 0-1.28 0.032-1.92 20.48 11.36 43.872 18.208 68.768 18.976-40.736-27.232-67.552-73.696-67.552-126.368 0-27.808 7.488-53.92 20.544-76.32 74.88 91.84 186.752 152.288 312.928 158.624-2.592-11.104-3.936-22.688-3.936-34.592 0-83.84 67.968-151.808 151.808-151.808 43.68 0 83.136 18.432 110.816 47.936 34.592-6.816 67.072-19.456 96.416-36.832-11.328 35.456-35.424 65.216-66.752 84 30.72-3.68 59.968-11.84 87.2-23.904C861.664 312.928 835.904 339.68 806.24 361.088z" p-id="2340" fill="#1296db"></path></svg>