<?xml version="1.0" standalone="no"?><!DOCTYPE svg PUBLIC "-//W3C//DTD SVG 1.1//EN" "http://www.w3.org/Graphics/SVG/1.1/DTD/svg11.dtd"><svg t="1483862518580" class="icon" style="" viewBox="0 0 1000 1000" version="1.1" xmlns="http://www.w3.org/2000/svg" p-id="2651" xmlns:xlink="http://www.w3.org/1999/xlink" width="32" height="32"><defs><style type="text/css"></style></defs><path d="M351.5501 365.3473c16.6874 0 27.8862-11.3453 27.8862-28.2458 0-16.9795-11.1989-28.1739-27.8862-28.1739-16.6804 0-33.5176 11.1944-33.5176 28.1739C318.0324 354.002 334.8697 365.3473 351.5501 365.3473zM507.4328 308.9265c-16.6874 0-33.4467 11.1944-33.4467 28.1739 0 16.9015 16.7593 28.2458 33.4467 28.2458 16.8233 0 27.9512-11.3453 27.9512-28.2458C535.384 320.122 524.256 308.9265 507.4328 308.9265zM702.3866 517.7789c16.7593 0 27.9502-11.1994 27.9502-22.5407 0-11.2694-11.1909-22.6147-27.9502-22.6147-10.977 0-22.034 11.3453-22.034 22.6147C680.3536 506.5795 691.4096 517.7789 702.3866 517.7789zM579.8796 517.7789c16.9012 0 27.8782-11.1994 27.8782-22.5407 0-11.2694-10.977-22.6147-27.8782-22.6147-11.05 0-22.2478 11.3453-22.2478 22.6147C557.6318 506.5795 568.8297 517.7789 579.8796 517.7789zM76.7541 483.6761c0 242.5146 196.5688 439.0743 439.0903 439.0743 242.5215 0 439.0903-196.5597 439.0903-439.0743S758.3659 44.6048 515.8444 44.6048C273.3229 44.6048 76.7541 241.1615 76.7541 483.6761zM627.2255 370.1031c-105.8206 0-189.3934 80.0567-189.3934 178.6299 0 16.4658 2.5654 32.2731 6.8826 47.3449-6.8826 0.5856-13.7642 0.8784-20.7828 0.8784-27.8153 0-50.205-5.7061-78.0133-11.3413l-77.8704 39.5902 22.2478-67.911c-55.7655-39.5152-89.1322-90.3767-89.1322-152.3597 0-107.4242 100.3321-192.0178 222.7681-192.0178 109.5512 0 205.4951 67.6152 224.7338 158.5055C641.6473 370.6177 634.4718 370.1031 627.2255 370.1031zM830.526 546.0957c0 50.8605-33.2958 95.94-78.0133 129.8909l16.7593 56.4957-61.1041-33.881c-22.3268 5.6352-44.6386 11.2694-66.8214 11.2694-105.9625 0-189.5363-73.3992-189.5363-163.776 0-90.3008 83.5738-163.8439 189.5363-163.8439C741.3857 382.2518 830.526 455.795 830.526 546.0957z" p-id="2652" fill="#1afa29" class="selected"></path></svg>